<svg width="689" height="590" viewBox="0 0 689 590" fill="none" xmlns="http://www.w3.org/2000/svg">
  <path
    d="M433.773 440.841L439.891 441.936C446.392 443.095 450.717 449.306 449.557 455.805L448.434 462.081C447.274 468.58 441.063 472.907 434.566 471.747L428.446 470.652C421.947 469.491 417.62 463.28 418.78 456.781L419.903 450.506C421.063 444.006 427.274 439.679 433.773 440.841ZM474.479 271.958C490.377 274.799 501.387 282.651 507.511 295.509C512.386 305.666 513.742 316.809 511.574 328.941C507.946 349.234 495.307 366.89 473.657 381.909C466.107 387.145 461.368 393.963 459.433 402.36C458.719 405.146 458.052 408.265 457.437 411.717C456.274 418.216 450.065 422.543 443.566 421.381L437.446 420.288C430.947 419.125 426.62 412.916 427.781 406.417V406.416C431.091 387.901 438.098 374.963 448.806 367.592C460.377 359.621 468.907 350.839 474.402 341.241C477.56 335.653 479.728 329.564 480.907 322.974C482.12 316.175 481.557 310.571 479.216 306.156C476.669 301.062 472.134 298.362 465.606 298.058C459.512 297.726 454.483 301.091 450.524 308.155C450.324 308.496 450.129 308.845 449.937 309.202C447.132 314.422 440.897 316.773 435.333 314.736L429.878 312.739C423.126 310.268 420.047 302.418 423.346 296.03C426.622 289.68 430.946 284.295 436.313 279.869C442.13 275.083 449.555 272.197 458.583 271.221C463.32 270.667 468.62 270.909 474.479 271.958Z"
    fill="#AEDBED" />
  <path
    d="M201.419 465.883L206.5 466.125C211.897 466.382 216.066 470.966 215.807 476.363L215.559 481.576C215.302 486.972 210.718 491.139 205.322 490.884L200.24 490.641C194.844 490.383 190.677 485.801 190.934 480.404L191.182 475.19C191.439 469.793 196.023 465.626 201.419 465.883ZM216.64 324.521C229.841 325.149 239.605 330.36 245.931 340.151C250.959 347.878 253.235 356.78 252.756 366.855C251.954 383.708 243.559 399.372 227.571 413.845C221.996 418.892 218.87 424.924 218.186 431.944C217.899 434.28 217.687 436.882 217.551 439.749C217.294 445.146 212.711 449.313 207.313 449.058L202.232 448.815C196.833 448.557 192.668 443.974 192.923 438.578C193.656 423.201 197.979 411.959 205.892 404.848C214.44 397.158 220.438 389.13 223.885 380.76C225.859 375.89 226.975 370.722 227.236 365.25C227.506 359.604 226.456 355.113 224.089 351.779C221.486 347.913 217.52 346.2 212.19 346.641C207.209 347.015 203.483 350.276 201.015 356.427C200.889 356.725 200.767 357.03 200.648 357.339C198.923 361.872 194.111 364.436 189.382 363.37L184.743 362.326C179 361.033 175.675 354.987 177.677 349.454C179.667 343.954 182.606 339.127 186.496 334.97C190.713 330.471 196.434 327.347 203.658 325.601C207.446 324.65 211.773 324.29 216.64 324.521"
    fill="#AEDBED" />
  <path
    d="M291.048 262.477L294.924 261.797C299.039 261.074 302.96 263.825 303.682 267.941L304.379 271.915C305.101 276.029 302.352 279.951 298.236 280.673L294.361 281.352C290.247 282.076 286.324 279.324 285.603 275.209L284.905 271.237C284.183 267.121 286.934 263.198 291.048 262.477ZM278.539 153.254C288.605 151.486 296.855 153.76 303.288 160.073C308.393 165.049 311.622 171.378 312.97 179.06C315.225 191.91 311.549 205.15 301.945 218.783C298.597 223.535 297.261 228.616 297.937 234.027C298.117 235.84 298.4 237.839 298.782 240.023C299.506 244.139 296.755 248.06 292.641 248.781L288.765 249.461C284.65 250.184 280.729 247.433 280.006 243.317C277.949 231.595 279.302 222.382 284.065 215.675C289.208 208.422 292.371 201.347 293.55 194.449C294.211 190.441 294.177 186.351 293.444 182.179C292.69 177.873 291.136 174.665 288.785 172.552C286.166 170.076 282.882 169.456 278.936 170.695C275.243 171.821 272.984 174.913 272.168 179.974C272.122 180.22 272.082 180.47 272.046 180.725C271.514 184.436 268.318 187.189 264.568 187.187L260.893 187.185C256.342 187.184 252.806 183.188 253.378 178.673C253.946 174.188 255.344 170.048 257.572 166.253C259.992 162.141 263.778 158.814 268.93 156.271C271.625 154.912 274.828 153.904 278.539 153.254"
    fill="#AEDBED" />
  <path
    d="M7.53065 379.211L10.1032 379.876C12.8343 380.583 14.4741 383.37 13.7671 386.101L13.0839 388.738C12.377 391.471 9.58944 393.11 6.85836 392.403L4.28578 391.738C1.5547 391.03 -0.0850455 388.244 0.621866 385.513L1.30509 382.875C2.012 380.144 4.79957 378.502 7.53065 379.211ZM30.3923 308.582C37.0734 310.314 41.508 314.018 43.6979 319.697C45.4433 324.183 45.6565 328.976 44.3356 334.076C42.1274 342.603 36.166 349.714 26.4496 355.405C23.0627 357.388 20.8199 360.137 19.7212 363.653C19.3259 364.818 18.9396 366.122 18.5643 367.574C17.8574 370.305 15.0698 371.947 12.3387 371.238L9.76799 370.573C7.03691 369.866 5.39534 367.079 6.10225 364.347C8.11732 356.566 11.5262 351.282 16.3306 348.493C21.5195 345.472 25.4421 342.011 28.0967 338.101C29.6235 335.823 30.7476 333.3 31.4636 330.529C32.2033 327.674 32.1468 325.267 31.2924 323.308C30.3759 321.055 28.5303 319.756 25.7591 319.415C23.1738 319.072 20.9219 320.34 19.0034 323.223C18.9068 323.363 18.8121 323.505 18.7192 323.651C17.3527 325.783 14.6198 326.579 12.3151 325.531L10.0577 324.502C7.26101 323.226 6.20428 319.783 7.82034 317.168C9.42365 314.57 11.4405 312.417 13.871 310.706C16.5073 308.857 19.765 307.871 23.6439 307.749C25.6808 307.667 27.9309 307.946 30.3923 308.582Z"
    fill="#AEDBED" />
  <path
    d="M108.574 390.481L116.514 388.442C124.946 386.276 133.537 391.357 135.703 399.789L137.793 407.931C139.959 416.363 134.878 424.956 126.446 427.12L118.506 429.159C110.074 431.323 101.484 426.244 99.3172 417.812L97.2275 409.668C95.0612 401.236 100.143 392.645 108.574 390.481ZM64.9355 165.599C85.5616 160.303 103.069 163.693 117.455 175.766C128.864 185.28 136.59 197.906 140.633 213.647C147.395 239.978 141.9 268.076 124.15 297.948C117.961 308.363 116.008 319.136 118.287 330.268C118.954 334.001 119.863 338.108 121.015 342.588C123.179 351.02 118.1 359.61 109.668 361.774L101.726 363.813C93.2957 365.98 84.7035 360.9 82.539 352.468C76.3699 328.444 77.6927 309.084 86.5017 294.379C96.0159 278.483 101.442 263.277 102.777 248.754C103.506 240.322 102.772 231.83 100.576 223.28C98.3115 214.462 94.5674 208.045 89.3421 204.033C83.4992 199.316 76.5776 198.56 68.5793 201.77C61.0894 204.707 56.8989 211.496 56.0171 222.139C55.9661 222.657 55.9223 223.185 55.8877 223.719C55.3794 231.515 49.1885 237.748 41.3979 238.351L33.7603 238.941C24.3081 239.676 16.3171 231.945 16.7744 222.473C17.2299 213.064 19.4654 204.235 23.4809 195.991C27.839 187.062 35.1668 179.537 45.4608 173.421C50.8428 170.161 57.3325 167.552 64.9355 165.599"
    fill="#AEDBED" />
  <path
    d="M628.202 395.724L633.813 394.282C639.771 392.752 645.842 396.343 647.372 402.301L648.85 408.056C650.38 414.014 646.791 420.085 640.832 421.615L635.22 423.056C629.262 424.587 623.192 420.996 621.661 415.038L620.183 409.282C618.653 403.325 622.242 397.254 628.202 395.724ZM597.364 236.805C611.939 233.063 624.312 235.459 634.477 243.991C642.54 250.712 648.001 259.636 650.858 270.759C655.635 289.364 651.752 309.223 639.21 330.332C634.836 337.691 633.454 345.303 635.067 353.172C635.537 355.81 636.18 358.713 636.993 361.877C638.523 367.835 634.932 373.906 628.974 375.436L623.363 376.877C617.405 378.408 611.334 374.817 609.804 368.859C605.444 351.884 606.379 338.203 612.604 327.811C619.327 316.579 623.161 305.831 624.106 295.568C624.62 289.61 624.102 283.609 622.55 277.565C620.951 271.334 618.303 266.8 614.612 263.965C610.482 260.632 605.592 260.097 599.94 262.365C594.645 264.44 591.685 269.239 591.062 276.758C591.023 277.126 590.994 277.498 590.969 277.875C590.612 283.387 586.235 287.79 580.729 288.217L575.333 288.636C568.652 289.153 563.006 283.691 563.33 276.997C563.651 270.347 565.23 264.109 568.069 258.28C571.15 251.971 576.328 246.654 583.603 242.333C587.403 240.028 591.991 238.184 597.364 236.805"
    fill="#AEDBED" />
  <path
    d="M602.539 132.07L605.64 131.274C608.934 130.428 612.29 132.41 613.135 135.705L613.952 138.886C614.799 142.18 612.813 145.536 609.521 146.379L606.418 147.177C603.124 148.023 599.768 146.039 598.924 142.744L598.106 139.563C597.261 136.271 599.245 132.915 602.539 132.07ZM585.493 44.2287C593.549 42.159 600.389 43.4835 606.006 48.2005C610.464 51.9154 613.481 56.8474 615.061 62.9965C617.701 73.2795 615.557 84.2566 608.622 95.9243C606.206 99.9945 605.443 104.2 606.332 108.549C606.593 110.008 606.948 111.611 607.398 113.36C608.243 116.654 606.259 120.01 602.965 120.856L599.864 121.652C596.57 122.497 593.214 120.513 592.369 117.221C589.96 107.836 590.476 100.275 593.918 94.5305C597.634 88.3214 599.753 82.3819 600.274 76.7084C600.558 73.4161 600.272 70.0984 599.414 66.7588C598.531 63.3135 597.068 60.8083 595.025 59.2396C592.744 57.3995 590.04 57.1025 586.916 58.356C583.99 59.5038 582.354 62.1566 582.009 66.3124C581.989 66.5164 581.971 66.7223 581.958 66.93C581.76 69.9763 579.342 72.4104 576.299 72.6454L573.315 72.8768C569.624 73.1629 566.503 70.1439 566.681 66.4436C566.86 62.7687 567.733 59.3198 569.301 56.1004C571.003 52.6114 573.865 49.6708 577.886 47.2841C579.989 46.0105 582.523 44.9903 585.493 44.2287"
    fill="#AEDBED" />
  <path
    d="M186.416 186.843C186.416 186.843 204.363 99.3503 163.471 103.661L124.379 185.054C124.379 185.054 150.583 195.795 186.416 186.843Z"
    fill="#361710" />
  <path
    d="M95.3065 186.843C95.3065 186.843 85.3587 115.894 116.222 97.8891L157.343 185.054C157.343 185.054 131.142 195.795 95.3065 186.843Z"
    fill="#361710" />
  <path
    d="M31.9553 167.223H36.7142C41.7683 167.223 45.8658 171.321 45.8658 176.373V181.254C45.8658 186.31 41.7683 190.406 36.7142 190.406H31.9553C26.9013 190.406 22.8056 186.31 22.8056 181.254V176.373C22.8056 171.321 26.9013 167.223 31.9553 167.223ZM39.8881 34.4732C52.2499 34.4732 61.6037 38.906 67.9495 47.7715C72.9927 54.7678 75.5142 62.9829 75.5142 72.4187C75.5142 88.2003 68.3668 103.208 54.0755 117.442C49.0907 122.404 46.4379 128.179 46.1118 134.769C45.9478 136.964 45.8658 139.402 45.8658 142.088C45.8658 147.144 41.7683 151.239 36.7142 151.239H31.9553C26.9013 151.239 22.8056 147.144 22.8056 142.088C22.8056 127.691 26.3438 116.996 33.4202 110C41.065 102.433 46.3104 94.6664 49.1599 86.6936C50.7851 82.0586 51.5995 77.1776 51.5995 72.0525C51.5995 66.7652 50.4207 62.6185 48.0613 59.6086C45.4577 56.1123 41.6754 54.6858 36.7142 55.3362C32.0774 55.9065 28.7414 59.1204 26.71 64.9761C26.6043 65.2603 26.5041 65.55 26.4075 65.8451C24.9974 70.1577 20.6156 72.7667 16.1482 71.9832L11.7683 71.2126C6.3462 70.2579 2.97014 64.7593 4.59531 59.4993C6.20955 54.274 8.74204 49.6335 12.1891 45.5743C15.9314 41.1834 21.1367 38.0114 27.8086 36.0601C31.3049 35.0034 35.3296 34.4732 39.8881 34.4732"
    fill="#FCC822" />
  <path
    d="M145.809 526.653C145.809 526.653 143.545 535.404 139.471 534.085C131.855 531.625 131.411 526.653 131.411 526.653C131.411 526.653 126.608 541.134 127.523 548.03C128.437 554.926 127.523 570.431 127.523 570.431H134.473C134.473 570.431 140.974 571.221 143.669 575.14C146.365 579.059 161.132 577.897 165.813 575.383C171.809 572.163 156.071 555.78 150.503 546.651C144.935 537.521 145.809 526.653 145.809 526.653Z"
    fill="#1C0906" />
  <path
    d="M132.802 397.783C137.604 385.921 154.738 386.054 158.963 398.131C159.725 400.308 160.277 402.588 160.637 404.894C162.414 416.221 160.63 434.375 155.953 457.561C149.642 488.844 146.231 551.249 135.272 552.167C124.312 553.085 130.754 500.61 130.524 469.58C130.297 438.549 125.407 416.05 132.346 398.913L132.802 397.783Z"
    fill="#CF9166" />
  <path
    d="M139.107 487.296C137.608 446.363 140.331 415.998 133.802 394.415L133.373 392.996C128.853 378.058 115.036 380.718 112.279 397.252C111.783 400.231 111.463 403.314 111.295 406.409C110.479 421.595 112.902 445.264 117.934 475.145C124.727 515.463 126.377 552.547 135.272 552.166C144.165 551.785 140.607 528.229 139.107 487.296Z"
    fill="#EDAC7C" />
  <path
    d="M126.69 533.851C126.69 533.851 128.628 549.31 134.023 548.375C139.329 547.455 141.087 533.851 141.087 533.851C141.087 533.851 145.891 548.33 144.977 555.226C144.461 559.112 144.527 565.731 144.681 570.771C144.796 574.526 141.784 577.627 138.026 577.627C138.026 577.627 131.525 578.417 128.829 582.336C126.134 586.257 111.367 585.095 106.687 582.58C100.689 579.361 116.429 562.978 121.996 553.849C127.564 544.717 126.69 533.851 126.69 533.851Z"
    fill="#361710" />
  <path
    d="M172.666 299.292L137.869 292.992V292.749L137.202 292.872L136.534 292.749V292.992L101.738 299.292C101.738 299.292 89.4329 317.619 91.8415 339.178C94.2483 360.735 105.346 477.328 105.346 477.328H165.247C165.247 477.328 180.154 360.735 182.563 339.178C184.97 317.619 172.666 299.292 172.666 299.292Z"
    fill="#195172" />
  <path
    d="M176.813 307.057C174.618 302.201 172.666 299.29 172.666 299.29L137.869 292.99V292.747L137.202 292.869L136.535 292.747V292.99L101.738 299.29C101.738 299.29 99.787 302.201 97.5934 307.057H176.813Z"
    fill="#0D435E" />
  <path d="M144.685 477.326L145.092 360.852L155.067 477.326" fill="#0D435E" />
  <path
    d="M91.5538 332.222C94.9298 332.122 100.618 331.452 108.851 328.848C123.286 324.284 123.409 305.229 123.409 305.229L123.022 295.439L101.738 299.293C101.738 299.293 91.9947 313.821 91.5538 332.222Z"
    fill="#0D435E" />
  <path
    d="M182.851 332.225C182.412 313.821 172.667 299.291 172.667 299.291L149.918 295.172L149.337 305.227C149.337 305.227 149.459 324.283 163.894 328.847C173.678 331.942 179.869 332.309 182.851 332.225Z"
    fill="#0D435E" />
  <path
    d="M103.682 200.451L128.402 190.404L147.802 190.614L178.114 203.256C178.114 203.256 162.314 257.568 163.354 271.583C164.394 285.597 172.666 301.457 172.666 301.457H103.682C103.682 301.457 116.033 276.467 113.322 261.726C110.609 246.983 103.682 200.451 103.682 200.451Z"
    fill="#5C93BC" />
  <path
    d="M161.678 115.54C153.289 99.8462 108.945 94.2875 100.792 143.629C94.8472 179.587 135.302 188.066 155.807 181.482C190.694 170.28 170.068 131.235 161.678 115.54Z"
    fill="#3E150D" />
  <path
    d="M168.897 148.922C168.897 148.922 175.166 140.87 180.936 146.159C186.708 151.452 178.46 167.755 167.408 163.92L168.897 148.922Z"
    fill="#EDAC7C" />
  <path
    d="M168.334 154.605L167.565 162.326C177.124 164.042 182.579 150.731 178.183 148.886C174.627 147.393 170.214 152.063 168.334 154.605Z"
    fill="#F7A588" />
  <path
    d="M179.723 151.644C179.723 151.644 179.705 151.584 179.676 151.473C179.647 151.363 179.594 151.207 179.532 151.01C179.388 150.627 179.142 150.073 178.674 149.676C178.557 149.576 178.42 149.496 178.28 149.428C178.207 149.398 178.136 149.363 178.054 149.337L178.001 149.319L177.998 149.317C178.04 149.332 178.007 149.321 178.014 149.325L178.007 149.321L177.985 149.317L177.948 149.308L177.797 149.266C177.688 149.234 177.606 149.223 177.524 149.21C177.446 149.195 177.358 149.183 177.256 149.177C177.165 149.172 177.07 149.166 176.977 149.168C176.877 149.168 176.782 149.164 176.684 149.177C175.899 149.232 175.068 149.538 174.277 149.962C173.875 150.168 173.492 150.418 173.113 150.669C172.74 150.924 172.372 151.188 172.024 151.454C171.329 151.992 170.697 152.533 170.151 152.999C169.059 153.963 168.334 154.606 168.334 154.606C168.334 154.606 168.427 154.379 168.631 154C168.839 153.624 169.15 153.094 169.586 152.5C169.806 152.205 170.047 151.883 170.327 151.564C170.606 151.243 170.916 150.913 171.255 150.591C171.934 149.948 172.73 149.314 173.649 148.824C174.108 148.581 174.594 148.372 175.103 148.23C175.613 148.088 176.148 148.011 176.671 148.031C176.801 148.033 176.928 148.044 177.059 148.062C177.187 148.069 177.311 148.098 177.435 148.126C177.557 148.149 177.681 148.186 177.806 148.228C177.936 148.268 178.056 148.308 178.14 148.354L178.284 148.421L178.375 148.463L178.457 148.507C178.564 148.563 178.663 148.63 178.757 148.702C178.941 148.847 179.104 149.008 179.229 149.177C179.493 149.509 179.623 149.866 179.698 150.174C179.776 150.48 179.785 150.753 179.789 150.968C179.789 151.185 179.763 151.358 179.75 151.471C179.732 151.586 179.723 151.644 179.723 151.644Z"
    fill="#CF9166" />
  <path
    d="M110.772 148.292C110.772 148.292 104.678 140.112 98.7964 145.275C92.9098 150.439 100.806 166.918 111.94 163.322L110.772 148.292Z"
    fill="#EDAC7C" />
  <path
    d="M111.214 153.991L111.815 161.727C102.223 163.239 97.0555 149.814 101.492 148.063C105.076 146.649 109.39 151.41 111.214 153.991Z"
    fill="#F7A588" />
  <path
    d="M99.8929 150.785C99.8929 150.785 99.9093 150.728 99.9421 150.617C99.9749 150.506 100.03 150.351 100.099 150.154C100.246 149.773 100.503 149.227 100.984 148.839C101.101 148.742 101.236 148.666 101.381 148.6C101.456 148.573 101.527 148.538 101.604 148.516L101.666 148.498L101.669 148.496C101.624 148.513 101.66 148.498 101.651 148.502H101.66L101.678 148.494L101.715 148.485L101.87 148.449C101.975 148.418 102.061 148.409 102.143 148.398C102.223 148.383 102.312 148.376 102.411 148.372C102.504 148.367 102.595 148.363 102.691 148.369C102.788 148.369 102.885 148.371 102.983 148.385C103.764 148.454 104.592 148.777 105.373 149.221C105.769 149.438 106.149 149.691 106.523 149.952C106.889 150.216 107.252 150.488 107.594 150.763C108.277 151.315 108.897 151.869 109.434 152.344C110.504 153.333 111.214 153.991 111.214 153.991C111.214 153.991 111.125 153.762 110.928 153.379C110.733 153 110.431 152.461 110.006 151.858C109.795 151.559 109.558 151.231 109.285 150.907C109.012 150.581 108.715 150.243 108.381 149.912C107.716 149.258 106.935 148.606 106.027 148.094C105.576 147.846 105.089 147.625 104.583 147.472C104.076 147.317 103.544 147.23 103.023 147.237C102.89 147.235 102.762 147.248 102.633 147.261C102.504 147.266 102.38 147.288 102.252 147.317C102.134 147.336 102.01 147.368 101.881 147.41C101.753 147.449 101.633 147.485 101.545 147.531L101.401 147.591L101.31 147.633L101.227 147.675C101.117 147.727 101.015 147.795 100.919 147.862C100.735 148.006 100.571 148.161 100.438 148.327C100.168 148.657 100.031 149.01 99.9494 149.312C99.8637 149.619 99.8492 149.89 99.8419 150.109C99.8364 150.327 99.8564 150.499 99.8692 150.612C99.8838 150.724 99.8929 150.785 99.8929 150.785Z"
    fill="#CF9166" />
  <path
    d="M146.507 173.681L130.771 173.508C130.771 173.508 129.9 198.143 129.841 198.143C129.841 198.143 130.944 203.069 137.923 203.253C144.905 203.435 146.682 198.321 146.682 198.321C146.625 198.186 146.507 173.681 146.507 173.681Z"
    fill="#EDAC7C" />
  <path
    d="M146.682 182.749L130.277 182.2C130.277 182.2 130.184 191.266 130.126 191.266C130.126 191.266 131.008 197.027 137.989 197.211C144.971 197.393 146.613 192.101 146.613 192.101C146.558 191.964 146.682 182.749 146.682 182.749Z"
    fill="#CF9166" />
  <path
    d="M146.457 178.211L130.721 178.04C130.721 178.04 130.488 181.185 130.279 183.861C130.246 184.247 134.761 184.981 135.251 185.063C139.095 185.716 142.894 185.262 146.652 184.347C146.559 181.607 146.457 178.211 146.457 178.211Z"
    fill="#CF9166" />
  <path
    d="M176.922 142.51C176.711 162.132 159.514 177.857 138.512 177.631C117.511 177.405 100.658 161.312 100.867 141.69C101.079 122.064 118.276 106.339 139.279 106.565C160.279 106.793 177.136 122.884 176.922 142.51Z"
    fill="#3E150D" />
  <path
    d="M172.884 141.984C172.622 131.049 168.032 120.676 157.276 116.316C151.806 114.097 145.781 113.458 139.902 113.489C134.093 113.522 127.906 113.831 122.424 115.876C112.607 119.543 109.942 113.558 108.839 123.533C108.73 124.51 107.433 128.687 106.103 141.264C105.864 143.505 105.802 145.732 105.861 147.994C105.995 153.078 106.748 158.183 108.355 163.025C110.301 168.901 113.598 174.371 118.437 178.388C121.187 180.673 124.361 182.433 127.731 183.664C133.297 185.692 138.612 186.401 144.466 185.388C148.434 184.703 152.309 183.449 155.807 181.483C161.612 178.222 165.988 173.103 168.75 167.159C171.071 162.158 172.312 156.703 172.806 151.243C173.076 148.253 173.167 145.212 172.906 142.223C172.899 142.142 172.886 142.064 172.884 141.984Z"
    fill="#EDAC7C" />
  <path
    d="M149.654 152.327C149.499 155.431 151.687 158.06 154.539 158.201C157.392 158.341 159.828 155.934 159.984 152.828C160.139 149.723 157.955 147.094 155.1 146.956C152.248 146.815 149.809 149.222 149.654 152.327Z"
    fill="#CF9166" />
  <path
    d="M149.719 151.013C149.562 154.12 151.751 156.747 154.602 156.889C157.457 157.029 159.893 154.622 160.048 151.518C160.206 148.413 158.02 145.781 155.165 145.642C152.314 145.505 149.874 147.909 149.719 151.013Z"
    fill="black" />
  <path
    d="M151.568 149.578C151.512 150.702 152.395 151.66 153.538 151.715C154.684 151.772 155.656 150.906 155.711 149.78C155.769 148.656 154.886 147.701 153.743 147.645C152.599 147.587 151.625 148.454 151.568 149.578Z"
    fill="white" />
  <path
    d="M118.851 151.114C118.696 154.219 120.882 156.848 123.733 156.988C126.588 157.128 129.024 154.72 129.179 151.617C129.336 148.512 127.151 145.882 124.296 145.743C121.447 145.606 119.005 148.008 118.851 151.114Z"
    fill="#CF9166" />
  <path
    d="M118.917 149.801C118.76 152.907 120.95 155.534 123.8 155.677C126.655 155.815 129.091 153.412 129.246 150.304C129.404 147.201 127.216 144.568 124.363 144.432C121.513 144.293 119.072 146.698 118.917 149.801Z"
    fill="black" />
  <path
    d="M120.766 148.365C120.712 149.489 121.59 150.447 122.736 150.502C123.88 150.558 124.855 149.693 124.911 148.565C124.966 147.441 124.086 146.484 122.938 146.43C121.796 146.373 120.823 147.239 120.766 148.365Z"
    fill="white" />
  <path
    d="M137.052 147.691C137.052 147.691 137.81 154.527 134.59 153.958C128.359 152.869 128.343 166.222 137.751 161.25C141.302 159.375 140.133 147.784 140.133 147.784L137.052 147.691Z"
    fill="#F48470" />
  <path
    d="M130.45 167.262C130.45 167.262 142.987 169.349 148.945 162.165C148.945 162.165 153.953 175.585 140.493 177.309C131.99 178.391 130.45 167.262 130.45 167.262Z"
    fill="#B43128" />
  <path
    d="M134.713 175.727C136.137 176.902 138.02 177.622 140.492 177.308C143.545 176.915 145.644 175.922 147.075 174.625C147.484 174.233 147.849 173.814 148.18 173.378C148.19 173.369 148.197 173.358 148.202 173.349C148.21 173.342 148.21 173.338 148.213 173.335C149.239 171.883 149.68 170.219 149.811 168.627C142.246 166.648 136.824 172.562 134.713 175.727Z"
    fill="#F05736" />
  <path
    d="M130.45 167.263C130.45 167.263 130.466 167.36 130.494 167.529C131.714 167.781 133.974 170.434 137.015 170.328C138.938 170.264 140.824 169.732 142.555 168.918C143.63 168.413 144.738 167.927 145.667 167.181C146.379 166.613 146.891 164.928 147.192 163.886C140.835 168.989 130.452 167.263 130.45 167.263Z"
    fill="white" />
  <path
    d="M131.288 168.052C131.831 170.562 133.928 177.469 140.407 176.64C143.996 176.185 146.518 174.815 147.903 172.577C149.814 169.487 149.13 165.434 148.637 163.506C143.251 168.848 134.242 168.374 131.288 168.052ZM139.245 178.049C131.339 177.965 129.791 167.469 129.778 167.354C129.747 167.146 129.82 166.933 129.976 166.785C130.133 166.638 130.348 166.569 130.565 166.605C130.685 166.623 142.787 168.538 148.416 161.742C148.571 161.558 148.815 161.464 149.058 161.505C149.3 161.546 149.5 161.71 149.586 161.937C149.684 162.201 151.991 168.533 149.072 173.268C147.463 175.871 144.607 177.458 140.582 177.97C140.114 178.03 139.673 178.054 139.245 178.049Z"
    fill="#F05B4E" />
  <path
    d="M125.572 166.531C125.541 169.397 123.154 171.694 120.239 171.661C117.324 171.63 114.983 169.282 115.012 166.416C115.045 163.55 117.433 161.254 120.349 161.284C123.264 161.318 125.603 163.665 125.572 166.531Z"
    fill="#F49B77" />
  <path
    d="M163.47 163.603C163.439 166.469 161.051 168.768 158.132 168.735C155.221 168.705 152.881 166.358 152.91 163.49C152.943 160.626 155.33 158.329 158.245 158.36C161.16 158.392 163.501 160.741 163.47 163.603Z"
    fill="#F49B77" />
  <path
    d="M115.296 136.934C115.296 136.934 115.413 136.719 115.686 136.385C115.825 136.225 115.992 136.016 116.211 135.815C116.422 135.602 116.675 135.38 116.969 135.15C117.26 134.922 117.59 134.693 117.953 134.471C118.319 134.257 118.711 134.028 119.141 133.847C119.558 133.642 120.013 133.483 120.48 133.328C120.946 133.168 121.438 133.079 121.921 132.953C122.411 132.876 122.906 132.802 123.391 132.754C123.879 132.727 124.362 132.714 124.821 132.716C125.288 132.742 125.734 132.782 126.153 132.822C126.578 132.871 126.968 132.967 127.328 133.039C127.685 133.121 128.012 133.19 128.296 133.299C128.578 133.396 128.824 133.49 129.023 133.567C129.418 133.72 129.64 133.829 129.64 133.829C129.64 133.829 129.389 133.864 128.966 133.893C128.755 133.909 128.5 133.931 128.21 133.939C127.926 133.94 127.598 133.979 127.245 134.008C126.895 134.039 126.518 134.039 126.122 134.083C125.725 134.126 125.313 134.166 124.885 134.197C124.461 134.254 124.027 134.319 123.579 134.369C123.142 134.443 122.699 134.518 122.252 134.596C122.03 134.644 121.812 134.695 121.593 134.74C121.371 134.788 121.152 134.824 120.941 134.888C120.726 134.946 120.511 134.999 120.299 135.05C120.084 135.097 119.889 135.176 119.682 135.23C119.27 135.341 118.884 135.478 118.508 135.6C118.319 135.657 118.146 135.737 117.971 135.795C117.796 135.859 117.623 135.914 117.464 135.985C117.142 136.11 116.843 136.229 116.584 136.344C116.315 136.451 116.091 136.562 115.894 136.646C115.713 136.739 115.553 136.801 115.457 136.855C115.351 136.907 115.296 136.934 115.296 136.934Z"
    fill="black" />
  <path
    d="M160.22 144.435C160.22 144.435 160.076 144.237 159.764 143.941C159.602 143.801 159.414 143.613 159.174 143.439C158.935 143.258 158.651 143.071 158.338 142.879C158.019 142.69 157.662 142.506 157.272 142.333C156.878 142.167 156.463 141.99 156.013 141.868C155.572 141.717 155.1 141.617 154.619 141.522C154.138 141.422 153.639 141.396 153.143 141.338C152.644 141.321 152.148 141.311 151.658 141.327C151.17 141.362 150.691 141.411 150.23 141.471C149.774 141.557 149.337 141.653 148.924 141.746C148.515 141.848 148.14 141.996 147.792 142.114C147.446 142.24 147.129 142.351 146.865 142.493C146.595 142.626 146.366 142.752 146.18 142.854C145.801 143.058 145.599 143.191 145.599 143.191C145.599 143.191 145.852 143.196 146.275 143.173C146.484 143.16 146.741 143.147 147.031 143.12C147.315 143.085 147.641 143.08 147.996 143.061C148.346 143.049 148.72 143.001 149.122 142.992C149.519 142.985 149.933 142.974 150.359 142.95C150.789 142.954 151.232 142.961 151.678 142.95C152.123 142.967 152.571 142.989 153.025 143.007C153.249 143.027 153.473 143.045 153.697 143.063C153.919 143.083 154.143 143.091 154.364 143.129C154.583 143.162 154.801 143.184 155.018 143.207C155.237 143.227 155.446 143.278 155.654 143.307C156.078 143.364 156.477 143.451 156.867 143.524C157.062 143.553 157.241 143.612 157.423 143.646C157.605 143.688 157.786 143.721 157.949 143.768C158.285 143.856 158.598 143.932 158.871 144.012C159.152 144.087 159.387 144.167 159.587 144.226C159.782 144.295 159.948 144.335 160.054 144.377C160.161 144.413 160.22 144.435 160.22 144.435Z"
    fill="black" />
  <path
    d="M172.434 158.301C172.434 158.301 173.263 156.773 174.841 153.858C180.744 142.939 183.236 130.127 180.051 118.131C178.339 111.682 174.811 108.544 171.94 107.023C168.998 105.467 155.617 97.0168 147.586 94.5772C133.089 90.1736 117.65 94.7576 106.802 102.289C95.9544 109.821 81.8034 134.498 93.5367 134.751C105.27 135.006 123.105 118.499 117.805 122.753C110.218 128.846 117.645 129.491 134.623 130.072C151.6 130.652 161.666 124.745 161.666 124.745C161.666 124.745 161.027 129.941 163.528 137.639C166.028 145.338 172.966 154.107 172.966 154.107"
    fill="#361710" />
  <path
    d="M119.279 194.114L123.408 299.041C123.408 299.041 123.286 318.097 108.851 322.662C94.4155 327.228 87.7745 325.858 87.7745 325.858C87.7745 325.858 103.465 258.224 100.319 243.078C97.1721 227.933 92.3512 203.734 92.3512 203.734L119.279 194.114Z"
    fill="#122738" />
  <path
    d="M155.419 193.833L149.338 299.041C149.338 299.041 149.46 318.097 163.895 322.662C178.33 327.228 184.971 325.858 184.971 325.858C184.971 325.858 169.279 258.224 172.425 243.078C175.574 227.933 180.395 203.736 180.395 203.736L155.419 193.833Z"
    fill="#122738" />
  <path
    d="M196.599 223.879C196.599 223.879 225.725 258.364 225.778 269.214C225.829 280.065 210.55 276.64 210.55 276.64L182.946 237.239L196.599 223.879Z"
    fill="#EDAC7C" />
  <path
    d="M196.599 223.878L182.946 237.239L193.919 252.902C193.919 252.902 200.427 243.196 212.219 243.927C204.598 233.351 196.599 223.878 196.599 223.878Z"
    fill="#CF9166" />
  <path
    d="M90.674 227.155C90.674 227.155 51.7629 250.035 41.0609 248.251C30.357 246.47 36.3147 231.989 36.3147 231.989L79.8153 211.441L90.674 227.155Z"
    fill="#EDAC7C" />
  <path
    d="M58.4277 243.678C73.1836 237.436 90.6742 227.157 90.6742 227.157L79.8155 211.442L58.4168 221.549C58.4168 221.549 66.3513 238.802 58.4277 243.678"
    fill="#CF9166" />
  <path
    d="M219.196 276.844C219.275 276.8 219.353 276.753 219.431 276.705C222.494 274.853 224.75 271.859 226.291 268.623C229.572 261.74 231.307 253.765 233.803 246.543C235.745 240.917 237.509 234.85 239.888 229.189C239.524 229.024 239.181 228.81 238.877 228.524C235.851 225.691 234.362 223.769 230.879 221.517C229.88 230.21 217.681 247.276 212.588 260.838C211.582 263.518 210.706 266.293 210.608 269.154C210.426 274.534 213.35 280.225 219.196 276.844Z"
    fill="#EEC9B1" />
  <path
    d="M212.729 279.081C214.247 279.992 216.772 280.661 220.245 278.658L220.514 278.498C223.632 276.612 226.281 273.508 228.181 269.525C230.402 264.866 231.929 259.75 233.406 254.802C234.157 252.28 234.935 249.673 235.78 247.228C236.374 245.512 236.95 243.754 237.531 241.981C238.841 237.991 240.193 233.868 241.818 230L242.607 228.12L240.749 227.28C240.569 227.198 240.425 227.107 240.308 226.997C239.506 226.247 238.814 225.56 238.164 224.917C236.325 223.095 234.74 221.52 232.015 219.759L229.183 217.928L228.797 221.278C228.285 225.751 224.268 233.137 220.015 240.959C216.523 247.377 212.915 254.013 210.629 260.104C209.645 262.72 208.624 265.834 208.515 269.082C208.364 273.529 210.018 277.452 212.729 279.081Z"
    fill="#EDAC7C" />
  <path
    d="M237.748 223.39C237.752 223.377 240.064 216.395 240.955 216.124C241.849 215.853 243.434 216.487 243.434 216.487L240.76 226.498C240.76 226.498 244.487 218.117 245.943 217.398C247.395 216.676 249.02 217.438 249.02 217.438L244.575 228.965C244.575 228.965 247.204 220.639 248.758 219.329C250.314 218.022 252.156 218.578 252.156 218.578L248.403 231.009L248.066 229.437C248.066 229.437 250.631 225.033 252.201 224.698C253.77 224.359 255.28 224.738 255.28 224.738C255.28 224.738 252.458 229.218 251.241 232.097C250.024 234.976 247.816 235.508 247.816 235.508C242.866 233.992 238.644 230.295 234.574 227.136C231.428 224.691 229.183 217.926 229.183 217.926C229.183 217.926 233.452 213.976 237.748 223.39"
    fill="#EDAC7C" />
  <path
    d="M37.3712 243.925C37.3129 243.856 37.2546 243.787 37.1981 243.716C34.9517 240.928 33.853 237.346 33.5069 233.777C32.7726 226.189 33.8621 218.099 33.9806 210.458C34.0735 204.508 34.4871 198.202 34.1828 192.069C34.58 192.038 34.9772 191.955 35.3598 191.791C39.1713 190.158 41.2264 188.861 45.2693 187.934C43.2415 196.444 48.884 216.647 49.0443 231.133C49.0753 233.998 48.9514 236.904 48.0678 239.627C46.4044 244.747 41.7129 249.101 37.3712 243.925Z"
    fill="#EEC9B1" />
  <path
    d="M42.6868 248.235C40.9487 248.574 38.3488 248.343 35.7671 245.273L35.5667 245.029C33.2802 242.194 31.8481 238.373 31.4218 233.979C30.9244 228.843 31.236 223.514 31.5366 218.359C31.6896 215.732 31.8481 213.016 31.8882 210.427C31.9155 208.612 31.9738 206.763 32.0321 204.899C32.1633 200.701 32.2981 196.363 32.0923 192.173L31.9902 190.136L34.0235 189.981C34.2221 189.968 34.3879 189.93 34.5355 189.866C35.5467 189.436 36.4285 189.026 37.2611 188.642C39.6096 187.556 41.6374 186.619 44.8003 185.892L48.0871 185.136L47.3073 188.419C46.2615 192.797 47.5186 201.113 48.8468 209.915C49.9381 217.139 51.0659 224.608 51.1388 231.115C51.1698 233.909 51.0659 237.182 50.0602 240.274C48.6847 244.506 45.7914 247.63 42.6868 248.235Z"
    fill="#EDAC7C" />
  <path
    d="M38.1718 187.351C38.1718 187.336 38.3832 179.985 37.638 179.425C36.8892 178.866 35.182 178.919 35.182 178.919L34.2802 189.244C34.2802 189.244 33.637 180.094 32.5147 178.921C31.3942 177.747 29.6069 177.908 29.6069 177.908L29.8529 190.26C29.8529 190.26 30.2227 181.537 29.2079 179.777C28.1931 178.017 26.2728 177.909 26.2728 177.909L25.5586 190.876L26.4112 189.513C26.4112 189.513 25.5021 184.501 24.1411 183.647C22.7801 182.794 21.2333 182.634 21.2333 182.634C21.2333 182.634 22.3556 187.81 22.5177 190.931C22.6799 194.052 24.5729 195.304 24.5729 195.304C29.7454 195.57 34.9743 193.534 39.879 191.951C43.6704 190.729 48.0868 185.135 48.0868 185.135C48.0868 185.135 45.4231 179.966 38.1718 187.351Z"
    fill="#EDAC7C" />
  <path
    d="M180.394 203.733C180.394 203.733 204.11 222.69 209.766 233.788L184.834 251.785L165.964 223.88L180.394 203.733Z"
    fill="#122738" />
  <path
    d="M92.3542 203.732C92.3542 203.732 71.9576 213.727 59.7725 220.195L70.7624 247.096L105.591 234.255L92.3542 203.732Z"
    fill="#122738" />
  <path
    d="M139.889 574.027C136.515 574.732 131.312 572.763 127.405 578.808C123.641 584.634 114.792 584.543 114.154 584.53C120.067 585.288 127.056 584.917 128.828 582.339C131.525 578.418 138.025 577.629 138.025 577.629C141.784 577.629 144.796 574.526 144.681 570.771C144.674 570.553 144.668 570.314 144.663 570.088C143.448 571.753 141.711 573.648 139.889 574.027Z"
    fill="#1C0906" />
  <path
    d="M497.003 106.165L499.809 107.16C502.789 108.215 504.349 111.487 503.294 114.467L502.274 117.346C501.219 120.325 497.947 121.886 494.966 120.83L492.16 119.837C489.181 118.78 487.62 115.508 488.677 112.527L489.695 109.65C490.75 106.67 494.022 105.11 497.003 106.165ZM529.408 29.5415C536.699 32.1232 541.289 36.6926 543.178 43.2461C544.69 48.4259 544.462 53.7969 542.491 59.3611C539.195 68.6658 531.846 76.0227 520.444 81.4302C516.468 83.316 513.697 86.1655 512.129 89.9842C511.575 91.245 511.015 92.6661 510.454 94.2494C509.399 97.2301 506.127 98.7897 503.148 97.7348L500.342 96.74C497.362 95.6851 495.8 92.4129 496.857 89.4322C499.863 80.942 504.185 75.3759 509.82 72.7269C515.907 69.8628 520.622 66.3792 523.967 62.2726C525.895 59.8786 527.396 57.1693 528.466 54.1486C529.57 51.0312 529.741 48.3384 528.98 46.0719C528.173 43.4647 526.241 41.8341 523.18 41.1818C520.327 40.5496 517.689 41.7485 515.266 44.7765C515.146 44.9223 515.025 45.0717 514.907 45.2265C513.174 47.473 510.046 48.0979 507.576 46.7005L505.154 45.3322C502.155 43.6378 501.314 39.6897 503.371 36.9276C505.413 34.1838 507.876 31.9756 510.757 30.303C513.879 28.4939 517.613 27.7104 521.954 27.9527C524.237 28.0621 526.722 28.5904 529.408 29.5415Z"
    fill="#FCC822" />
  <path
    d="M301.015 114.632L305.116 115.433C309.474 116.286 312.315 120.511 311.462 124.865L310.638 129.074C309.786 133.43 305.563 136.271 301.206 135.418L297.103 134.616C292.747 133.764 289.907 129.541 290.759 125.184L291.583 120.976C292.436 116.619 296.657 113.777 301.015 114.632ZM330.248 1.52764C340.906 3.61376 348.223 9.01397 352.197 17.7265C355.363 24.6098 356.152 32.118 354.56 40.2511C351.898 53.8573 343.204 65.5869 328.483 75.4473C323.348 78.8853 320.085 83.4146 318.693 89.0389C318.181 90.9064 317.698 92.9962 317.247 95.31C316.394 99.6663 312.171 102.509 307.813 101.654L303.711 100.852C299.353 99.9997 296.513 95.7764 297.366 91.4202C299.796 79.0073 304.65 70.3841 311.932 65.5469C319.797 60.3161 325.631 54.5041 329.432 48.1109C331.616 44.3887 333.141 40.3185 334.005 35.9003C334.898 31.3436 334.581 27.5686 333.054 24.5751C331.399 21.1226 328.381 19.2551 323.993 18.98C319.899 18.6885 316.481 20.8948 313.741 25.6009C313.605 25.8286 313.468 26.0618 313.335 26.3005C311.391 29.7786 307.173 31.289 303.455 29.8588L299.809 28.4559C295.296 26.7196 293.312 21.4086 295.602 17.1489C297.874 12.9166 300.84 9.34192 304.499 6.42682C308.463 3.27122 313.486 1.41467 319.568 0.857157C322.76 0.536496 326.32 0.75878 330.248 1.52764"
    fill="#FCC822" />
  <path
    d="M234.871 187.478L237.755 186.739C240.816 185.952 243.937 187.797 244.722 190.858L245.482 193.817C246.269 196.878 244.424 199.999 241.361 200.784L238.477 201.526C235.416 202.311 232.295 200.467 231.51 197.402L230.75 194.445C229.963 191.385 231.809 188.265 234.871 187.478ZM219.022 105.806C226.514 103.882 232.871 105.114 238.096 109.498C242.239 112.954 245.045 117.538 246.513 123.257C248.969 132.818 246.974 143.025 240.528 153.873C238.28 157.655 237.569 161.567 238.398 165.61C238.641 166.965 238.971 168.457 239.388 170.084C240.175 173.147 238.329 176.266 235.267 177.051L232.384 177.793C229.322 178.578 226.202 176.734 225.415 173.672C223.176 164.948 223.655 157.916 226.855 152.577C230.311 146.804 232.28 141.281 232.765 136.007C233.029 132.944 232.763 129.86 231.967 126.755C231.144 123.552 229.784 121.222 227.886 119.764C225.763 118.052 223.251 117.777 220.345 118.943C217.625 120.01 216.103 122.475 215.783 126.34C215.765 126.529 215.748 126.719 215.735 126.914C215.551 129.747 213.303 132.01 210.474 132.228L207.701 132.443C204.266 132.707 201.366 129.902 201.532 126.462C201.697 123.046 202.508 119.839 203.967 116.844C205.551 113.601 208.211 110.868 211.949 108.647C213.904 107.463 216.26 106.515 219.022 105.806"
    fill="#FCC822" />
  <path
    d="M676.342 187.868L679.226 187.128C682.286 186.341 685.407 188.186 686.193 191.247L686.952 194.206C687.74 197.269 685.894 200.388 682.833 201.175L679.947 201.915C676.886 202.702 673.765 200.856 672.98 197.793L672.22 194.836C671.433 191.776 673.279 188.655 676.342 187.868ZM660.492 106.197C667.984 104.273 674.341 105.505 679.566 109.889C683.709 113.345 686.515 117.929 687.984 123.646C690.44 133.209 688.445 143.416 681.999 154.264C679.75 158.046 679.04 161.956 679.869 166.001C680.111 167.356 680.441 168.848 680.858 170.474C681.645 173.536 679.8 176.657 676.739 177.442L673.855 178.184C670.792 178.969 667.673 177.125 666.886 174.063C664.646 165.339 665.126 158.307 668.325 152.967C671.781 147.195 673.751 141.672 674.235 136.396C674.5 133.333 674.234 130.251 673.437 127.146C672.614 123.941 671.255 121.613 669.356 120.155C667.234 118.443 664.721 118.168 661.817 119.334C659.097 120.399 657.574 122.864 657.253 126.731C657.235 126.918 657.218 127.11 657.208 127.305C657.022 130.136 654.773 132.4 651.944 132.619L649.171 132.834C645.738 133.098 642.836 130.291 643.002 126.853C643.168 123.435 643.978 120.228 645.438 117.233C647.021 113.99 649.681 111.259 653.42 109.038C655.375 107.854 657.732 106.906 660.492 106.197"
    fill="#FCC822" />
  <path
    d="M349.798 296.073L361.95 244.749L339.85 243.914L328.239 291.292C327.419 294.635 327.611 298.146 328.786 301.38L349.907 359.502L375.203 357.06L349.798 296.073Z"
    fill="#A7A6BB" />
  <path
    d="M339.805 289.221C342.059 284.69 344.247 280.64 346.368 277.069C349.303 271.831 353.014 267.387 357.465 263.699L361.952 244.75L339.851 243.915L328.239 291.293C327.667 293.628 327.618 296.041 328.023 298.389C332.958 297.311 337.38 294.098 339.805 289.221Z"
    fill="#727293" />
  <path
    d="M371.332 465.388L370.794 467.882L367.968 480.991L355.463 539.012L354.1 545.316L353.796 546.737L351.28 574.294L348.317 575.19C340.796 577.475 333.113 576.981 326.408 574.23C323.663 573.104 320.864 570.362 318.913 568.183C316.703 565.714 314.916 562.879 313.531 559.871C309.554 551.223 308.633 541.372 308.426 531.967C308.355 528.787 308.373 525.608 308.373 522.427V491.25V463.99V454.086C310.67 454.086 313.248 453.798 315.092 453.673C316.752 453.565 319.735 453.009 321.444 453.009C328.145 450.71 335.055 451.339 341.523 450.552C344.595 450.178 347.568 450 350.367 449.885C354.268 449.728 357.833 449.961 360.876 450.716C367.258 452.304 371.332 456.495 371.332 465.388Z"
    fill="#1C1B2D" />
  <path
    d="M421.502 551.894L354.967 573.178L351.279 574.295L348.317 575.19C340.796 577.474 333.113 576.982 326.408 574.231C324.661 573.249 323.01 572.103 321.482 570.819C321.471 570.811 321.465 570.801 321.454 570.79C316.3 566.033 312.696 559.601 311.456 552.353L349.959 540.678L355.461 539.013L412.664 522.747L421.502 551.894Z"
    fill="#1C1B2D" />
  <path
    d="M456.74 556.694C455.884 552.983 454.39 548.388 454.058 546.938C452.788 541.375 450.908 535.944 449.31 530.471C448.726 528.467 448.011 527.082 447.765 526.645C447.641 526.443 447.66 526.454 447.765 526.645C447.944 526.937 448.41 527.656 449.323 528.906C447.652 526.621 446.311 524.47 445.206 521.877C443.959 518.951 443.001 516.021 442.281 513.104L401.147 525.388L410.461 556.581L429.759 550.819C430.951 550.463 432.204 551.139 432.559 552.329L434.545 558.984C435.161 561.045 436.048 562.947 437.118 564.703C438.237 564.314 439.379 563.987 440.547 563.736C445.646 562.637 450.509 560.832 455.39 559.085C455.806 558.272 456.25 557.472 456.74 556.694Z"
    fill="#361710" />
  <path
    d="M418.835 530.197C422.449 529.117 426.255 531.174 427.336 534.788C428.414 538.403 426.359 542.209 422.744 543.29C419.13 544.368 415.324 542.313 414.243 538.698C413.165 535.084 415.22 531.278 418.835 530.197Z"
    fill="white" />
  <path
    d="M434.723 559.53C438.804 572.125 452.212 579.221 464.964 575.413C466.153 575.056 466.831 573.804 466.476 572.615L460.289 551.896L434.723 559.53Z"
    fill="white" />
  <path
    d="M456.633 576.401C459.371 576.551 462.184 576.243 464.965 575.412C466.154 575.057 466.832 573.803 466.477 572.614L448.822 513.501C448.469 512.309 447.215 511.632 446.024 511.989L438.104 514.352L456.633 576.401Z"
    fill="white" />
  <path
    d="M420.819 365.421L417.233 372.765L398.443 411.25L367.518 474.595L309.187 450.972L327.047 410.361L339.857 381.248L359.472 336.649L420.819 365.421Z"
    fill="#A7A6BB" />
  <path
    d="M410.349 378.038C409.696 378.038 408.465 377.145 406.991 375.897C403.782 392.768 387.263 405.988 370.109 405.988C355.507 405.988 343.558 397.668 337.331 385.778L324.452 416.266L338.096 437.041C340.988 441.332 346.648 442.771 351.243 440.379L395.846 417.157L414.636 378.674C413.257 378.255 411.808 378.038 410.349 378.038Z"
    fill="#727293" />
  <path
    d="M391.275 387.299C387.897 387.299 384.681 386.811 381.624 385.98L344.187 462.66L310.117 448.86L309.188 450.972L367.517 474.597L414.06 379.266C407.532 384.267 399.479 387.299 391.275 387.299Z"
    fill="#727293" />
  <path
    d="M432.103 314.181C432.103 314.181 441.156 308.909 444.631 316.156C448.107 323.404 434.012 335.782 424.948 327.902L432.103 314.181Z"
    fill="#EDAC7C" />
  <path
    d="M429.391 319.382L425.706 326.446C434.158 331.737 444.448 321.14 440.962 317.7C438.146 314.918 432.155 317.68 429.391 319.382Z"
    fill="#F7A588" />
  <path
    d="M441.376 320.916C441.376 320.916 441.382 320.852 441.396 320.734C441.411 320.617 441.42 320.448 441.436 320.238C441.447 319.819 441.423 319.198 441.128 318.64C441.055 318.5 440.957 318.373 440.85 318.254C440.791 318.196 440.737 318.138 440.669 318.079L440.624 318.041L440.622 318.037C440.655 318.07 440.629 318.046 440.635 318.052L440.629 318.046L440.609 318.034L440.58 318.01L440.451 317.915C440.359 317.842 440.285 317.799 440.214 317.757C440.143 317.711 440.062 317.668 439.97 317.624C439.886 317.582 439.796 317.538 439.705 317.507C439.612 317.467 439.523 317.427 439.423 317.401C438.656 317.156 437.747 317.13 436.83 317.232C436.368 317.274 435.908 317.365 435.451 317.46C434.997 317.56 434.546 317.671 434.114 317.791C433.245 318.037 432.436 318.311 431.736 318.546C430.33 319.049 429.391 319.382 429.391 319.382C429.391 319.382 429.568 319.203 429.907 318.919C430.249 318.64 430.749 318.256 431.39 317.855C431.713 317.658 432.066 317.443 432.454 317.247C432.842 317.048 433.263 316.853 433.709 316.675C434.604 316.323 435.606 316.02 436.666 315.906C437.198 315.853 437.739 315.836 438.281 315.897C438.82 315.955 439.359 316.09 439.849 316.307C439.973 316.358 440.09 316.418 440.208 316.483C440.327 316.542 440.434 316.616 440.542 316.689C440.649 316.758 440.753 316.839 440.857 316.928C440.962 317.015 441.063 317.099 441.125 317.174L441.238 317.296L441.307 317.369L441.369 317.443C441.451 317.538 441.518 317.638 441.582 317.742C441.702 317.952 441.793 318.165 441.85 318.374C441.974 318.793 441.961 319.183 441.914 319.506C441.872 319.826 441.777 320.091 441.697 320.297C441.615 320.502 441.525 320.657 441.469 320.761C441.409 320.863 441.376 320.916 441.376 320.916Z"
    fill="#CF9166" />
  <path
    d="M376.96 291.358C376.96 291.358 374.282 281.232 366.703 283.903C359.12 286.572 360.343 305.293 372.327 306.125L376.96 291.358Z"
    fill="#EDAC7C" />
  <path
    d="M375.204 296.955L372.817 304.554C363.101 302.328 363.31 287.561 368.207 287.588C372.163 287.61 374.451 293.799 375.204 296.955Z"
    fill="#F7A588" />
  <path
    d="M365.642 289.569C365.642 289.569 365.68 289.522 365.755 289.429C365.828 289.334 365.937 289.209 366.079 289.05C366.364 288.742 366.819 288.318 367.426 288.134C367.573 288.088 367.732 288.066 367.898 288.059C367.978 288.061 368.06 288.054 368.14 288.065L368.206 288.07H368.209C368.16 288.068 368.2 288.068 368.191 288.068L368.198 288.07L368.22 288.072L368.258 288.077L368.419 288.101C368.532 288.112 368.617 288.137 368.697 288.157C368.781 288.172 368.869 288.199 368.963 288.236C369.055 288.263 369.144 288.298 369.233 288.338C369.324 288.376 369.415 288.413 369.505 288.465C370.222 288.83 370.886 289.456 371.463 290.176C371.757 290.533 372.021 290.921 372.278 291.313C372.527 291.705 372.768 292.102 372.988 292.494C373.427 293.283 373.808 294.046 374.138 294.705C374.777 296.057 375.204 296.956 375.204 296.956C375.204 296.956 375.205 296.7 375.165 296.263C375.125 295.828 375.041 295.197 374.868 294.461C374.781 294.093 374.681 293.692 374.544 293.279C374.409 292.863 374.254 292.428 374.063 291.985C373.68 291.107 373.185 290.187 372.516 289.353C372.181 288.941 371.802 288.546 371.378 288.207C370.955 287.866 370.481 287.58 369.98 287.389C369.856 287.334 369.729 287.297 369.601 287.261C369.475 287.217 369.35 287.19 369.217 287.17C369.096 287.143 368.965 287.126 368.827 287.115C368.69 287.103 368.561 287.093 368.461 287.103L368.3 287.104L368.198 287.108L368.104 287.117C367.978 287.126 367.854 287.152 367.735 287.179C367.506 287.245 367.291 287.33 367.1 287.436C366.719 287.647 366.453 287.933 366.26 288.19C366.059 288.449 365.943 288.7 365.853 288.906C365.764 289.112 365.719 289.283 365.686 289.396C365.657 289.509 365.642 289.569 365.642 289.569Z"
    fill="#CF9166" />
  <path
    d="M401.301 329.212L386.374 323.03C386.374 323.03 376.123 346.171 376.069 346.147C376.069 346.147 375.234 351.263 381.815 354.107C388.398 356.951 392.045 352.759 392.045 352.759C392.043 352.607 401.301 329.212 401.301 329.212Z"
    fill="#EDAC7C" />
  <path
    d="M396.503 341.634L380.565 336.097C380.565 336.097 377.007 344.243 376.95 344.22C376.95 344.22 376.336 348.308 382.915 351.156C389.498 353.998 392.931 350.478 392.931 350.478C392.929 350.327 396.503 341.634 396.503 341.634Z"
    fill="#CF9166" />
  <path
    d="M399.521 333.509L384.594 327.328C384.594 327.328 383.169 330.235 381.945 332.706C381.766 333.061 385.787 335.486 386.223 335.752C389.637 337.846 393.43 338.864 397.36 339.432C398.319 336.783 399.521 333.509 399.521 333.509Z"
    fill="#CF9166" />
  <path
    d="M438.614 290.763C425.516 290.763 414.543 284.077 407.926 274.12H371.844C371.179 276.292 370.574 278.657 370.048 281.278C366.081 301.034 371.259 326.738 391.182 334.984C411.107 343.232 434.497 329.757 442.2 311.144C445.009 304.355 445.454 297.155 443.945 290.341C442.184 290.616 440.402 290.763 438.614 290.763Z"
    fill="#3E150D" />
  <path
    d="M438.553 309.098C442.487 298.579 442.079 286.938 433.497 278.672C429.134 274.467 423.637 271.554 418.024 269.337C412.478 267.145 406.464 265.073 400.458 264.926C389.702 264.663 389.062 270.023 384.199 279.104C383.72 279.993 375.616 281.957 375.199 282.874C374.239 284.98 373.204 287.017 372.395 289.194C370.579 294.089 369.345 299.242 369.023 304.471C368.631 310.813 369.682 317.284 372.756 322.963C374.501 326.194 376.853 329.083 379.594 331.545C384.123 335.606 388.915 338.311 394.88 339.585C398.923 340.45 403.095 340.738 407.18 340.201C413.957 339.313 420.084 336.111 424.989 331.505C429.112 327.628 432.381 322.903 434.939 317.889C436.34 315.144 437.588 312.281 438.484 309.334C438.508 309.253 438.526 309.175 438.553 309.098Z"
    fill="#EDAC7C" />
  <path
    d="M411.918 306.73C410.584 309.628 411.661 312.972 414.325 314.194C416.99 315.418 420.232 314.057 421.569 311.159C422.904 308.258 421.826 304.919 419.162 303.694C416.497 302.47 413.254 303.829 411.918 306.73Z"
    fill="#CF9166" />
  <path
    d="M412.327 304.638C410.99 307.537 412.069 310.878 414.732 312.104C417.4 313.329 420.641 311.968 421.976 309.069C423.314 306.172 422.237 302.827 419.571 301.603C416.906 300.382 413.661 301.739 412.327 304.638Z"
    fill="black" />
  <path
    d="M414.638 303.977C414.153 305.027 414.631 306.277 415.698 306.765C416.768 307.257 418.025 306.807 418.51 305.754C418.992 304.704 418.517 303.456 417.449 302.964C416.382 302.474 415.123 302.926 414.638 303.977Z"
    fill="white" />
  <path
    d="M381.87 295.624C380.534 298.524 381.611 301.866 384.276 303.088C386.942 304.313 390.185 302.95 391.519 300.055C392.854 297.156 391.777 293.813 389.114 292.588C386.45 291.368 383.205 292.723 381.87 295.624Z"
    fill="#CF9166" />
  <path
    d="M382.435 294.394C381.098 297.294 382.178 300.636 384.842 301.86C387.507 303.084 390.749 301.725 392.084 298.825C393.421 295.928 392.343 292.583 389.679 291.36C387.016 290.138 383.769 291.497 382.435 294.394Z"
    fill="black" />
  <path
    d="M384.744 293.736C384.262 294.784 384.734 296.034 385.805 296.524C386.873 297.018 388.133 296.564 388.618 295.513C389.099 294.462 388.627 293.214 387.556 292.722C386.488 292.233 385.229 292.685 384.744 293.736Z"
    fill="white" />
  <path
    d="M400.896 296.351C400.896 296.351 399.153 307.715 395.961 306.689C389.773 304.71 387.895 318.291 398.158 314.545C402.033 313.133 404.017 296.874 404.017 296.874L400.896 296.351Z"
    fill="#F48470" />
  <path
    d="M381.064 289.501C381.064 289.501 381.257 289.34 381.644 289.129C381.839 289.027 382.079 288.892 382.363 288.785C382.646 288.661 382.972 288.55 383.34 288.442C383.704 288.335 384.107 288.243 384.535 288.171C384.967 288.105 385.428 288.038 385.907 288.028C386.382 287.994 386.876 288.018 387.381 288.048C387.887 288.072 388.39 288.176 388.899 288.243C389.394 288.356 389.895 288.475 390.376 288.615C390.85 288.775 391.314 288.947 391.754 289.123C392.187 289.326 392.597 289.535 392.982 289.736C393.368 289.941 393.701 290.186 394.016 290.39C394.324 290.605 394.612 290.796 394.84 291.009C395.071 291.208 395.268 291.394 395.43 291.541C395.749 291.838 395.918 292.028 395.918 292.028C395.918 292.028 395.665 291.966 395.252 291.831C395.044 291.765 394.793 291.687 394.512 291.587C394.24 291.479 393.916 291.39 393.568 291.281C393.222 291.179 392.865 291.033 392.47 290.923C392.074 290.814 391.666 290.694 391.247 290.561C390.819 290.452 390.382 290.35 389.939 290.222C389.492 290.127 389.041 290.029 388.585 289.932C388.356 289.894 388.128 289.856 387.902 289.818C387.672 289.779 387.45 289.728 387.222 289.708C386.996 289.685 386.772 289.652 386.552 289.619C386.33 289.583 386.113 289.581 385.892 289.553C385.459 289.502 385.038 289.486 384.633 289.459C384.431 289.439 384.238 289.45 384.049 289.439C383.855 289.433 383.671 289.42 383.493 289.426C383.138 289.422 382.806 289.42 382.516 289.43C382.217 289.431 381.962 289.45 381.744 289.455C381.536 289.473 381.359 289.471 381.246 289.488C381.126 289.497 381.064 289.501 381.064 289.501Z"
    fill="black" />
  <path
    d="M427.115 298.797C427.115 298.797 427.003 298.571 426.739 298.215C426.601 298.046 426.442 297.824 426.231 297.605C426.021 297.379 425.766 297.14 425.482 296.889C425.196 296.643 424.866 296.395 424.502 296.151C424.132 295.914 423.744 295.663 423.312 295.459C422.891 295.229 422.43 295.045 421.96 294.867C421.492 294.677 420.991 294.566 420.501 294.418C420 294.315 419.499 294.216 419 294.147C418.5 294.096 418.005 294.061 417.531 294.041C417.056 294.049 416.597 294.067 416.161 294.092C415.729 294.121 415.325 294.203 414.951 294.262C414.58 294.329 414.241 294.387 413.947 294.484C413.652 294.571 413.397 294.659 413.191 294.728C412.772 294.868 412.543 294.967 412.543 294.967C412.543 294.967 412.798 295.018 413.23 295.065C413.446 295.093 413.707 295.123 414.004 295.147C414.299 295.162 414.629 295.213 414.991 295.258C415.349 295.307 415.735 295.324 416.141 295.386C416.546 295.448 416.965 295.51 417.402 295.561C417.835 295.639 418.282 295.727 418.735 295.792C419.182 295.887 419.632 295.987 420.087 296.087C420.311 296.146 420.534 296.204 420.758 296.262C420.978 296.322 421.204 296.366 421.421 296.444C421.636 296.515 421.853 296.579 422.068 296.638C422.286 296.698 422.489 296.785 422.695 296.853C423.112 296.984 423.502 297.142 423.882 297.286C424.074 297.348 424.245 297.439 424.424 297.508C424.602 297.579 424.777 297.647 424.936 297.723C425.258 297.867 425.562 298 425.825 298.132C426.094 298.255 426.32 298.377 426.512 298.472C426.697 298.576 426.858 298.649 426.956 298.707C427.06 298.764 427.115 298.797 427.115 298.797Z"
    fill="black" />
  <path
    d="M438.954 309.651C438.954 309.651 441.128 305.858 443.237 300.655C441.018 305.918 438.954 309.651 438.954 309.651Z"
    fill="#CF9166" />
  <path
    d="M441.862 272.455C439.717 272.668 437.487 272.619 435.343 272.664C430.194 272.777 425.042 272.626 419.891 272.721C416.826 272.777 413.767 272.912 410.712 273.151C410.452 273.171 403.361 273.896 403.581 273.805C398.297 274.526 393.034 275.446 387.768 276.254C385.728 276.567 383.722 276.738 381.738 276.829C387.696 278.09 395.413 277.724 400.795 277.199C400.506 277.288 400.249 277.358 399.935 277.465C394.375 279.354 398.97 285.542 408.726 289.701C422.229 295.457 434.465 293.176 434.465 293.176C434.465 293.176 432.282 297.137 431.808 304.115C431.486 308.892 432.668 314.74 433.444 317.956C433.805 319.435 434.077 320.359 434.077 320.359L432.3 323.551C432.3 323.551 436.226 316.916 443.228 308.28C457.818 290.284 456.282 279.841 453.466 274.763C449.51 274.557 445.58 273.81 441.862 272.455Z"
    fill="#361710" />
  <path
    d="M440.913 295.349C440.913 295.349 411.881 296.601 363.417 277.328C340.227 268.107 378.162 267.451 378.162 267.451L423.034 266.424L440.913 295.349Z"
    fill="#2D2C44" />
  <path
    d="M446.844 303.813C446.844 303.813 445.146 300.233 440.914 295.35C436.044 289.728 427.819 282.376 414.98 276.781C391.002 266.33 378.161 267.454 378.161 267.454C378.161 267.454 380.114 253.371 398.676 246.362C405.887 243.638 413.315 242.907 420.415 244.064C432.332 246.005 443.333 253.249 450.872 265.288C462.842 284.404 446.844 303.813 446.844 303.813Z"
    fill="#2D2C44" />
  <path
    d="M440.914 295.35C436.045 289.726 427.819 282.376 414.982 276.781C391.002 266.328 378.162 267.453 378.162 267.453C378.162 267.453 380.114 253.371 398.676 246.36C405.887 243.636 413.317 242.907 420.417 244.064C426.557 246.73 432.365 250.882 437.463 256.501C451.111 271.55 443.169 290.702 440.914 295.35Z"
    fill="#A7A6BB" />
  <path
    d="M436.667 315.906C436.667 315.906 416.778 323.746 408.64 329.736C406.501 331.312 405.355 336.65 398.373 336.65C389.726 336.65 391.087 332.522 385.421 328.61C382.251 326.42 375.526 324.201 373.62 321.452C369.426 315.41 369.457 295.979 369.457 295.979C369.457 295.979 363.693 311.047 368.083 325.345C369.971 331.489 372.367 347.465 393.696 348.254C413.87 348.999 417.017 342.79 420.952 338.735C424.888 334.683 436.667 315.906 436.667 315.906Z"
    fill="#361710" />
  <path
    d="M299.979 302.117L308.012 306.112C316.544 310.354 320.02 320.712 315.779 329.244L311.681 337.483C307.438 346.015 297.082 349.493 288.55 345.249L280.517 341.252C271.985 337.011 268.509 326.655 272.75 318.123L276.848 309.884C281.091 301.352 291.447 297.875 299.979 302.117Z"
    fill="#FCC822" />
  <path
    d="M319.743 355.213L316.953 349.075C316.257 347.018 316.001 344.841 316.194 342.68L317.434 328.873C317.598 327.071 317.039 325.275 315.88 323.885L304.761 310.525C304.052 309.672 302.713 309.776 302.143 310.727C301.806 311.293 301.844 312.006 302.245 312.531L307.399 319.288L302.62 315.491C301.695 314.757 300.319 315.145 299.917 316.256C299.676 316.918 299.862 317.661 300.385 318.131L307.847 324.869L300.802 320.294C299.831 319.662 298.523 320.101 298.127 321.19C297.83 322.008 298.162 322.921 298.914 323.362L305.386 327.133L298.486 324.829C297.654 324.552 296.75 324.987 296.451 325.812C296.176 326.57 296.5 327.416 297.211 327.795L301.181 329.91C303.815 331.318 305.237 334.272 304.685 337.207L303.393 344.097C302.662 348.004 303.447 352.041 305.59 355.388L309.09 360.854L319.743 355.213Z"
    fill="#EDAC7C" />
  <path
    d="M407.119 365.698L359.386 391.256C356.22 392.954 352.279 391.928 350.337 388.905L322.432 345.89L301.662 357.206L341.854 422.939C344.749 427.232 350.406 428.669 354.999 426.279L420.971 391.93C427.507 388.528 430.553 380.843 428.126 373.887C425.124 365.286 415.15 361.398 407.119 365.698Z"
    fill="#A7A6BB" />
  <path
    d="M378.945 450.771C378.945 476.774 357.867 497.859 331.855 497.859L286.325 493.795L253.797 490.889V483.298C253.797 465.332 268.36 450.771 286.325 450.771H378.945Z"
    fill="#2D2C44" />
  <path d="M285.389 450.773V577.121L256.854 571.218L253.214 483.3C253.214 465.334 267.002 450.773 285.389 450.773Z"
    fill="#2D2C44" />
  <path
    d="M236.657 554.452C223.421 554.758 212.785 565.575 212.785 578.884C212.785 580.127 213.792 581.135 215.035 581.135H236.657V554.452Z"
    fill="white" />
  <path
    d="M254.003 532.048V552.189C254.003 553.43 252.995 554.437 251.754 554.437H237.23C236.483 554.437 235.745 554.472 235.015 554.538V574.144H286.557V532.048H254.003Z"
    fill="#361710" />
  <path
    d="M276.889 547.622C276.889 551.393 273.83 554.453 270.059 554.453C266.285 554.453 263.226 551.393 263.226 547.622C263.226 543.849 266.285 540.79 270.059 540.79C273.83 540.79 276.889 543.849 276.889 547.622Z"
    fill="white" />
  <path
    d="M214.221 570.617C213.293 573.199 212.783 575.981 212.783 578.883C212.783 580.126 213.791 581.132 215.033 581.132H284.307C285.55 581.132 286.557 580.126 286.557 578.883V570.617H214.221Z"
    fill="white" />
  <path
    d="M424.815 84.666C445.685 95.0437 457.758 110.384 461.026 130.679C463.664 146.725 461.026 162.709 453.104 178.638C439.855 205.278 415.192 224.614 379.114 236.646C366.533 240.839 357.205 248.362 351.123 259.209C349.003 262.78 346.816 266.829 344.563 271.363C340.319 279.894 329.963 283.372 321.431 279.129L313.396 275.133C304.866 270.892 301.388 260.534 305.63 252.004C317.718 227.695 332.671 212.611 350.493 206.741C369.749 200.388 385.126 191.679 396.628 180.611C403.265 174.149 408.738 166.595 413.04 157.942C417.478 149.017 418.969 141.024 417.515 133.962C416.052 125.873 410.865 120.294 401.943 117.226C393.638 114.296 385.308 116.918 376.96 125.098C376.545 125.492 376.131 125.896 375.721 126.314C369.72 132.408 360.133 133.137 353.25 128.059L346.503 123.083C338.149 116.922 337.065 104.802 344.225 97.2883C351.338 89.8202 359.508 84.1121 368.736 80.1585C378.737 75.8842 390.191 74.8986 403.092 77.2033C409.881 78.3548 417.123 80.8399 424.815 84.666Z"
    fill="#FCC822" />
  <path
    d="M391.386 330.534C391.949 330.534 392.434 330.152 392.576 329.607C393.137 327.435 395.096 325.827 397.444 325.827C399.794 325.827 401.751 327.435 402.312 329.607C402.453 330.152 402.939 330.534 403.502 330.534C404.291 330.534 404.914 329.797 404.721 329.03C403.899 325.766 400.964 323.347 397.444 323.347C393.924 323.347 390.989 325.766 390.167 329.03C389.974 329.797 390.595 330.534 391.386 330.534Z"
    fill="#F05B4E" />
  <path
    d="M413.245 328.36C412.097 322.909 408.238 318.405 403.066 316.436C402.093 316.066 400.989 316.241 400.218 316.937C399.362 317.707 398.429 318.533 397.443 318.533C396.409 318.533 395.43 317.664 394.539 316.858C393.779 316.171 392.701 315.98 391.735 316.328C387.075 318.001 383.363 321.741 381.757 326.509C381.259 327.985 381.982 329.694 383.475 330.142C384.936 330.579 386.379 329.759 386.818 328.391C388.312 323.734 392.772 320.482 397.881 320.777C402.991 321.072 407.047 324.816 407.994 329.612C408.233 330.816 409.242 331.707 410.465 331.778H410.467C412.263 331.778 413.615 330.118 413.245 328.36Z"
    fill="#361710" />
  <path
    d="M309.187 450.974C309.187 450.974 343.315 451.885 358.177 464.494C373.036 477.102 376.414 477.328 376.414 477.328C376.414 477.328 378.571 451.954 386.614 435.48C394.657 419.008 384.52 423.515 382.494 425.991C380.468 428.467 355.025 449.841 355.025 449.841L349.991 450.773L309.187 450.974Z"
    fill="#727293" />
  <path
    d="M511.562 201.391C511.562 201.391 509.313 210.014 513.014 211.982C516.718 213.952 526.183 214.983 526.277 211.982C526.37 208.983 528.996 206.077 524.31 204.015C519.622 201.954 514.092 201.391 514.092 201.391H511.562Z"
    fill="#C9BDBD" />
  <path
    d="M602.165 100.29C602.069 100.308 601.972 100.329 601.875 100.35C601.112 100.514 600.664 100.669 600.664 100.669V100.704C600.483 100.769 600.299 100.828 600.123 100.906C590.268 105.312 590.268 114.328 590.268 114.328L596.349 132.364C596.349 132.364 598.049 132.446 600.595 132.212L600.418 213.892L601.301 214.398C607.902 218.186 616.015 218.202 622.629 214.436L623.591 213.892C623.591 213.892 624.772 181.079 625.209 136.481C625.582 98.5193 607.543 99.2372 602.165 100.29Z"
    fill="#161616" />
  <path
    d="M587.812 113.167L591.456 108.362C591.919 107.754 592.773 107.61 593.402 108.044C597.381 110.778 610.355 120.704 608.584 132.656L587.812 113.167Z"
    fill="white" />
  <path
    d="M572.518 189.323C572.526 189.276 576.242 188.859 576.466 188.819C579.717 188.221 582.907 187.243 585.935 185.92C595.294 181.828 602.491 174.278 606.051 164.683C608.605 157.793 609.323 150.338 609.045 143.033C608.638 132.32 606.164 120.614 596.73 114.066C588.695 108.493 584.76 110.186 584.76 110.186C584.76 110.186 572.522 189.296 572.518 189.323Z"
    fill="#161616" />
  <path
    d="M574.705 175.599L558.34 174.561C558.34 174.561 556.089 200.146 556.027 200.143C556.027 200.143 556.905 205.328 564.158 205.904C571.413 206.474 573.543 201.25 573.543 201.25C573.49 201.105 574.705 175.599 574.705 175.599Z"
    fill="#F8D0B7" />
  <path
    d="M564.744 195.423C559.373 194.999 557.426 193.118 556.775 192.171C557.453 184.663 558.34 174.562 558.34 174.562L574.705 175.6C574.705 175.6 574.24 185.372 573.898 192.854C573.453 193.437 571.163 195.928 564.744 195.423Z"
    fill="#EFBDAC" />
  <path
    d="M567.705 183.78L551.341 182.742C551.341 182.742 550.925 186.003 550.561 188.774C550.506 189.177 555.163 190.186 555.67 190.299C559.634 191.186 563.611 190.922 567.574 190.177C567.625 187.318 567.705 183.78 567.705 183.78Z"
    fill="#CF9166" />
  <path
    d="M531.575 136.929C532.034 133.64 532.382 130.853 535.028 127.744C541.495 120.149 551.818 115.813 561.728 115.829C576.635 115.855 592.092 121.568 596.077 137.162C597.442 142.502 597.474 148.103 596.946 153.59C596.115 162.245 593.798 170.992 588.576 177.944C582.318 186.274 571.978 191.379 561.56 191.283C545.651 191.135 532.92 182.587 528.64 168.709C525.559 158.719 528.436 150.894 530.813 141.179C531.189 139.647 531.391 138.248 531.575 136.929Z"
    fill="#F8D0B7" />
  <path
    d="M602.493 155.398C602.529 155.445 602.575 155.511 602.575 155.511C602.575 155.511 602.567 155.442 602.551 155.314C602.531 155.19 602.504 154.995 602.423 154.758C602.341 154.525 602.232 154.232 602.012 153.92C601.797 153.609 601.489 153.257 601.002 152.966C600.764 152.816 600.481 152.687 600.17 152.577C600.013 152.526 599.849 152.479 599.678 152.448L599.548 152.421L599.404 152.399L599.182 152.366C599.046 152.341 598.861 152.328 598.67 152.321C598.477 152.306 598.291 152.302 598.114 152.31C597.93 152.311 597.746 152.317 597.562 152.339C597.378 152.357 597.193 152.375 597.01 152.41C596.799 152.444 596.595 152.505 596.387 152.556C596.404 151.156 596.356 149.757 596.218 148.371C598.031 148.114 600.06 148.29 602.31 149.234C611.792 153.217 607.098 171.396 592.137 172.152C592.523 171.349 592.871 170.533 593.195 169.707C601.21 167.383 604.16 159.488 602.493 155.398Z"
    fill="#F8D0B7" />
  <path
    d="M597.843 153.56C597.978 153.531 598.111 153.515 598.246 153.498C598.383 153.475 598.51 153.464 598.629 153.458C598.745 153.449 598.867 153.44 599.029 153.447L599.255 153.449L599.312 153.451H599.339H599.354C599.341 153.449 599.392 153.455 599.326 153.447H599.332L599.419 153.455C599.54 153.46 599.651 153.478 599.764 153.491C599.988 153.528 600.205 153.58 600.403 153.655C601.205 153.961 601.748 154.495 602.077 154.874C602.241 155.067 602.369 155.222 602.449 155.339C602.477 155.377 602.475 155.371 602.493 155.397C604.16 159.487 601.21 167.382 593.196 169.705C594.724 165.813 595.626 161.695 596.076 157.596C596.205 156.421 596.298 155.242 596.351 154.058C596.712 153.905 597.073 153.743 597.441 153.65C597.574 153.61 597.708 153.586 597.843 153.56Z"
    fill="#FFB7A1" />
  <path
    d="M597.563 152.339C597.747 152.316 597.931 152.31 598.113 152.308C598.292 152.301 598.476 152.305 598.669 152.319C598.862 152.328 599.046 152.341 599.183 152.367L599.403 152.399L599.547 152.421L599.677 152.449C599.848 152.48 600.014 152.527 600.17 152.578C600.482 152.685 600.763 152.817 601.003 152.966C601.488 153.257 601.796 153.607 602.012 153.921C602.233 154.232 602.342 154.524 602.422 154.759C602.503 154.996 602.532 155.189 602.552 155.314C602.566 155.442 602.574 155.509 602.574 155.509C602.574 155.509 602.528 155.446 602.493 155.398C602.473 155.373 602.477 155.378 602.448 155.338C602.37 155.223 602.24 155.068 602.078 154.875C601.746 154.496 601.205 153.963 600.402 153.656C600.205 153.582 599.986 153.529 599.764 153.493C599.649 153.48 599.538 153.462 599.42 153.456L599.332 153.449H599.327C599.391 153.456 599.34 153.451 599.352 153.452H599.34H599.311L599.256 153.451L599.03 153.447C598.866 153.44 598.744 153.451 598.627 153.46C598.509 153.465 598.383 153.476 598.245 153.5C598.11 153.516 597.977 153.533 597.842 153.562C597.709 153.587 597.572 153.611 597.441 153.651C597.071 153.744 596.712 153.906 596.35 154.059C596.374 153.56 596.383 153.059 596.388 152.556C596.596 152.505 596.8 152.445 597.009 152.41C597.192 152.376 597.379 152.357 597.563 152.339Z"
    fill="#FFA792" />
  <path
    d="M554.579 153.007C554.579 153.007 554.994 160.161 551.676 159.394C545.252 157.918 544.503 171.813 554.566 167.156C558.365 165.399 557.78 153.273 557.78 153.273L554.579 153.007Z"
    fill="#F48470" />
  <path
    d="M543.49 171.986C543.3 174.967 540.691 177.228 537.66 177.035C534.628 176.842 532.321 174.271 532.507 171.29C532.699 168.309 535.309 166.05 538.341 166.241C541.373 166.435 543.679 169.005 543.49 171.986Z"
    fill="#FFB7A1" />
  <path
    d="M583.086 171.009C582.897 173.992 580.286 176.251 577.25 176.058C574.222 175.866 571.918 173.297 572.104 170.317C572.295 167.336 574.904 165.077 577.934 165.268C580.967 165.459 583.276 168.032 583.086 171.009Z"
    fill="#FFB7A1" />
  <path
    d="M533.724 148.657C533.724 148.657 533.879 148.455 534.216 148.159C534.384 148.014 534.591 147.828 534.85 147.657C535.102 147.473 535.4 147.287 535.739 147.099C536.076 146.911 536.455 146.727 536.861 146.562C537.275 146.401 537.714 146.23 538.188 146.113C538.652 145.973 539.146 145.886 539.651 145.804C540.157 145.713 540.678 145.704 541.196 145.656C541.713 145.658 542.234 145.662 542.743 145.693C543.249 145.745 543.747 145.811 544.22 145.886C544.694 145.991 545.148 146.106 545.572 146.217C546.002 146.338 546.387 146.502 546.744 146.636C547.099 146.778 547.425 146.902 547.698 147.063C547.973 147.208 548.21 147.347 548.403 147.458C548.784 147.68 548.994 147.828 548.994 147.828C548.994 147.828 548.73 147.824 548.291 147.784C548.072 147.766 547.806 147.744 547.503 147.708C547.21 147.662 546.868 147.646 546.5 147.617C546.135 147.593 545.747 147.529 545.334 147.509C544.918 147.487 544.486 147.463 544.042 147.423C543.594 147.411 543.138 147.409 542.67 147.383C542.207 147.389 541.739 147.392 541.267 147.4C541.03 147.411 540.795 147.425 540.564 147.438C540.329 147.453 540.095 147.451 539.868 147.482C539.636 147.507 539.409 147.527 539.183 147.545C538.953 147.556 538.738 147.606 538.516 147.629C538.075 147.675 537.654 147.751 537.248 147.813C537.044 147.841 536.852 147.895 536.663 147.926C536.472 147.963 536.286 147.992 536.111 148.039C535.759 148.114 535.431 148.187 535.145 148.261C534.85 148.329 534.6 148.405 534.385 148.46C534.185 148.526 534.01 148.562 533.903 148.604C533.784 148.639 533.724 148.657 533.724 148.657Z"
    fill="#161616" />
  <path
    d="M577.172 146.279C577.172 146.279 577.01 146.082 576.666 145.795C576.489 145.66 576.279 145.478 576.019 145.314C575.758 145.139 575.45 144.962 575.112 144.783C574.769 144.608 574.385 144.441 573.967 144.286C573.546 144.14 573.104 143.984 572.628 143.885C572.16 143.756 571.663 143.685 571.156 143.619C570.648 143.544 570.127 143.552 569.609 143.521C569.088 143.539 568.573 143.561 568.064 143.61C567.558 143.677 567.062 143.759 566.589 143.852C566.12 143.971 565.672 144.1 565.249 144.226C564.83 144.357 564.45 144.536 564.094 144.68C563.743 144.834 563.422 144.973 563.156 145.137C562.886 145.292 562.653 145.439 562.467 145.556C562.087 145.793 561.884 145.946 561.884 145.946C561.884 145.946 562.147 145.937 562.586 145.88C562.804 145.856 563.07 145.826 563.369 145.78C563.664 145.722 564.001 145.696 564.369 145.652C564.732 145.62 565.12 145.545 565.535 145.508C565.949 145.476 566.377 145.436 566.82 145.381C567.266 145.357 567.727 145.337 568.192 145.295C568.655 145.284 569.123 145.277 569.595 145.264C569.83 145.27 570.065 145.275 570.3 145.281C570.529 145.288 570.763 145.279 570.996 145.306C571.225 145.324 571.455 145.335 571.681 145.343C571.909 145.35 572.131 145.39 572.349 145.406C572.794 145.437 573.215 145.501 573.625 145.552C573.829 145.567 574.02 145.62 574.212 145.643C574.405 145.672 574.592 145.698 574.767 145.734C575.121 145.802 575.452 145.862 575.74 145.929C576.037 145.986 576.289 146.053 576.5 146.101C576.709 146.163 576.882 146.194 576.995 146.23C577.11 146.259 577.172 146.279 577.172 146.279Z"
    fill="#050607" />
  <path
    d="M566.765 153.293C566.211 155.337 567.426 157.409 569.472 157.921C571.518 158.433 573.624 157.192 574.173 155.146C574.727 153.103 573.515 151.028 571.467 150.516C569.421 150.006 567.315 151.249 566.765 153.293Z"
    fill="#050607" />
  <path
    d="M568.306 152.609C568.107 153.349 568.61 154.116 569.432 154.32C570.252 154.527 571.079 154.094 571.279 153.352C571.478 152.613 570.973 151.846 570.153 151.641C569.334 151.434 568.506 151.869 568.306 152.609Z"
    fill="white" />
  <path
    d="M545.012 152.403C545.564 154.447 544.351 156.52 542.305 157.032C540.257 157.544 538.152 156.303 537.602 154.257C537.05 152.213 538.262 150.14 540.31 149.628C542.356 149.118 544.462 150.36 545.012 152.403Z"
    fill="#050607" />
  <path
    d="M543.47 151.719C543.671 152.459 543.166 153.226 542.346 153.43C541.524 153.637 540.697 153.204 540.499 152.46C540.298 151.722 540.803 150.955 541.623 150.751C542.443 150.544 543.272 150.979 543.47 151.719Z"
    fill="white" />
  <path
    d="M580.487 135.78C580.487 135.78 593.321 175.059 581.579 186.803C581.579 186.803 598.636 177.455 600.188 134.588L580.487 135.78Z"
    fill="#161616" />
  <path
    d="M597.788 143.965C602.195 143.256 602.503 124.457 601.834 121.896C599.535 113.085 586.956 107.672 579.277 104.791C567.179 100.256 551.971 99.5112 541.029 107.369C535.166 111.583 532.287 117.512 529.552 123.974C529.048 125.166 523.584 140.19 523.551 140.19C523.553 140.19 565.208 142.31 564.88 142.292L568.817 142.493C568.817 142.493 594.689 144.462 597.788 143.965"
    fill="#161616" />
  <path
    d="M630.519 260.831H630.248C627.065 260.846 623.965 261.965 621.218 263.606C624.137 267.429 627.414 270.95 631.63 273.399C631.909 273.561 632.177 273.701 632.438 273.833C632.98 273.206 633.489 272.552 633.939 271.852C636.865 267.325 637.28 260.935 630.519 260.831Z"
    fill="#E8B79E" />
  <path
    d="M538.198 376.807C538.198 376.807 540.286 440.911 540.425 446.88C540.563 452.847 548.862 506.273 549.866 519.364C550.872 532.457 547.277 559.352 544.364 570.076L540.827 579.173C540.827 579.173 552.171 583.711 556.58 581.736C563.516 578.624 564.908 567.602 566.655 561.117C568.506 554.241 569.878 547.119 569.585 539.967C569.301 533.089 565.522 527.867 564.083 521.31C560.16 503.453 566.839 484.979 567.792 467.113C568.643 451.173 566.5 435.271 564.115 419.547C561.889 404.883 568.677 391.896 567.976 377.391C567.976 377.391 540.928 358.124 537.894 373.769"
    fill="#EFC8B1" />
  <path
    d="M543.113 573.287C542.938 574.075 545.254 574.912 545.779 575.149C549.599 576.879 555.659 578.55 558.805 574.671C562.648 569.951 563.53 561.759 565.159 556.058C567 549.605 568.917 542.184 568.347 535.407L568.077 532.213C568.077 532.213 577.065 537.704 576.5 545.327C575.933 552.952 568.267 565.735 567.788 573.709C567.492 578.623 565.102 583.509 561.088 586.428C554.954 590.888 544.359 590.571 537.8 587.208C535.375 585.964 533.462 580.183 536.64 578.721C540.601 576.901 547.008 558.283 546.34 557.656L544.363 570.074C544.363 570.074 543.113 573.279 543.113 573.287Z"
    fill="#122738" />
  <path
    d="M576.075 547.211C576.075 547.211 573.528 563.623 574.754 572.806L572.081 573.688L569.416 561.375L576.075 547.211Z"
    fill="#312E2F" />
  <path
    d="M599.027 547.212C599.027 547.212 596.875 571.78 598.103 580.965L594.197 581.074L592.368 561.375L599.027 547.212Z"
    fill="#0C1B26" />
  <path
    d="M558.526 376.807C558.526 376.807 563.238 440.911 563.376 446.88C563.515 452.847 571.812 506.273 572.818 519.364C573.823 532.457 570.229 559.352 567.315 570.076L563.779 579.173C563.779 579.173 575.124 583.711 579.532 581.736C586.468 578.624 587.86 567.602 589.607 561.117C591.458 554.241 592.83 547.119 592.537 539.967C592.254 533.089 588.474 527.867 587.032 521.31C583.112 503.453 589.791 484.979 590.744 467.113C591.595 451.173 589.452 435.271 587.067 419.547C584.841 404.883 591.629 391.896 590.928 377.391C590.928 377.391 561.258 358.124 558.222 373.769"
    fill="#F8D0B7" />
  <path
    d="M566.065 573.287C565.891 574.075 568.206 574.912 568.731 575.149C572.552 576.879 578.611 578.55 581.758 574.671C585.602 569.951 586.482 561.759 588.109 556.058C589.953 549.605 591.87 542.184 591.299 535.407L591.03 532.213C591.03 532.213 600.017 537.704 599.452 545.327C598.886 552.952 591.219 565.735 590.74 573.709C590.445 578.623 588.056 583.509 584.041 586.428C577.906 590.888 567.312 590.571 560.753 587.208C558.328 585.964 556.415 580.183 559.592 578.721C563.553 576.901 569.961 558.283 569.292 557.656L567.315 570.074C567.315 570.074 566.067 573.279 566.065 573.287Z"
    fill="#122738" />
  <path
    d="M588.514 239.071C590.746 228.533 598.548 217.76 599.025 215.393C586.725 203.106 575.748 198.743 573.164 197.937L557.871 198.005C553.779 199.668 549.656 201.25 545.551 202.879C544.008 203.489 542.567 203.811 541.594 205.154C540.402 206.797 539.796 209.614 539.01 211.52C536.862 216.729 534.652 222.016 533.592 227.599C532.907 231.202 533.76 235.085 535.219 239.071H588.514Z"
    fill="#F8D0B7" />
  <path
    d="M603.831 319.581C598.976 305.687 592.424 292.27 589.976 277.656C581.464 281.266 549.097 280.163 542.787 274.583C541.406 292.74 532.095 310.098 527.673 327.776C524.909 338.824 522.602 350.058 522.187 361.467C521.757 373.405 526.058 409.636 526.933 422.971C561.989 445.654 601.827 423.898 603.416 419.784C611.746 398.218 611.34 365.957 609.279 342.723C608.569 334.696 606.448 327.069 603.831 319.581Z"
    fill="#122738" />
  <path
    d="M527.672 327.775C527.488 328.506 527.315 329.242 527.136 329.974C539.595 336.641 588.147 340.652 606.489 327.983C605.702 325.155 604.802 322.357 603.831 319.58C599.167 306.234 592.948 293.322 590.294 279.373L582.869 279.204C575.199 280.091 564.145 279.874 555.42 278.583L545.23 278.351C545.23 278.351 541.559 306.174 529.736 320.529C528.98 322.941 528.277 325.355 527.672 327.775Z"
    fill="#0B1C28" />
  <path
    d="M556.749 224.495C556.718 223.971 556.654 223.461 556.585 222.949C556.572 222.863 556.559 222.781 556.545 222.694C555.648 216.688 552.212 211.664 547.796 208.313C542.25 204.301 536.343 200.845 530.529 197.25C518.856 190.167 508.846 184.464 497.037 177.602C493.376 170.847 489.66 164.133 485.79 157.527C483.835 154.225 481.882 150.926 479.685 147.792C477.21 144.906 475.407 141.565 473.641 138.123C470.076 131.311 467.004 124.045 462.097 118.165C459.417 115.083 456.5 112.275 453.449 109.63C453.724 110.107 462.963 126.22 462.015 142.366C462.015 142.366 461.997 142.372 461.984 142.375C463.092 143.028 464.193 143.714 465.302 144.365L466.499 145.09L467.097 145.453C467.319 145.567 467.508 145.704 467.503 145.826C467.813 146.471 468.121 147.564 468.394 148.47C469.494 152.292 470.629 156.127 471.974 159.853C474.65 167.294 478.003 174.463 482.649 180.587C484.97 183.626 487.579 186.477 490.556 188.8C493.48 191.165 496.45 193.472 499.44 195.747C505.427 200.293 509.772 203.452 516.036 207.602C522.307 211.742 528.709 215.694 535.39 219.177C542.139 222.53 549.038 225.685 556.785 226.862C556.791 226.727 556.774 226.598 556.778 226.463C556.8 226.088 556.813 225.408 556.749 224.495Z"
    fill="#EFC8B1" />
  <path
    d="M457.674 118.221C457.465 120.546 456.169 126.482 455.291 128.594C453.622 128.342 451.986 127.653 450.538 126.781C448.929 125.866 447.692 124.514 446.141 123.321C445.36 122.754 444.516 122.253 443.56 121.925C442.598 121.67 441.508 121.359 440.236 122.169C440.089 122.284 439.881 122.457 439.786 122.787C439.663 123.133 439.759 123.235 439.759 123.463C439.843 123.773 439.96 124.03 440.085 124.257C440.342 124.709 440.625 125.117 440.925 125.498C441.521 126.269 442.162 126.978 442.816 127.67C445.382 130.465 448.275 132.926 450.931 135.552L452.892 137.599C453.599 138.301 454.426 138.838 455.282 139.288C456.996 140.19 458.835 140.74 460.498 141.528C461.094 141.832 461.675 142.185 462.26 142.535V124.74C459.992 124.066 459.673 119.375 457.674 118.221Z"
    fill="#EFC8B1" />
  <path
    d="M516.095 188.663C516.095 188.663 519.202 193.706 518.218 203.827C517.234 213.95 513.014 211.982 513.014 211.982C513.014 211.982 523.56 219.995 534.103 225.619C544.649 231.244 544.226 204.39 544.226 204.39C544.226 204.39 517.207 185.309 516.095 188.663Z"
    fill="white" />
  <path
    d="M542.58 277.631C542.542 278.351 542.223 279.26 542.731 279.61C558.93 290.749 590.341 279.129 590.116 277.75C589.027 271.103 588.85 264.24 590.127 257.607C593.001 242.668 604.025 228.191 599.201 212.47C599.182 212.415 599.166 212.359 599.146 212.304C597.523 207.461 581.522 201.846 580.129 200.944C580.599 202.174 579.307 203.593 578.864 204.147C576.683 206.86 573.253 208.555 569.977 209.516C566.174 210.635 562.184 211.087 558.227 210.934C556.008 210.847 553.78 210.562 551.602 210.118C550.267 209.846 548.618 209.42 547.727 208.321C546.089 206.304 547.638 203.369 548.649 201.416C548.649 201.416 546.712 202.141 544.229 202.189C541.146 202.247 531.716 195.992 531.716 195.992C529.98 201.338 532.636 222.609 530.57 227.789C529.269 231.048 528.588 234.637 529.224 238.09C530.253 243.669 534.429 247.912 536.218 253.197C538.488 259.908 542.967 270.324 542.58 277.631Z"
    fill="white" />
  <path
    d="M541.979 271.229C541.979 271.229 537.435 305.713 522.158 317.71C510.72 326.691 582.341 336.892 604.147 320.204C605.075 319.492 605.211 318.138 604.454 317.247C603.251 315.832 601.4 312.897 599.024 306.81C594.606 295.495 589.446 272.304 589.446 272.304L541.979 271.229Z"
    fill="white" />
  <path
    d="M638.049 273.504C636.886 274.962 634.875 275.284 631.632 273.399C627.246 270.85 623.87 267.148 620.864 263.147C617.031 258.045 612.47 253.52 608.109 248.846C602.218 242.535 596.04 236.337 590.635 229.601C586.218 224.103 582.698 219.925 584.761 212.249C585.074 211.079 585.529 209.915 586.331 208.997C587.546 207.601 589.476 207.241 591.236 207.45C595.623 207.977 598.558 211.065 601.311 214.138C604.179 217.34 607.365 220.288 610.37 223.365C616.785 229.942 623.056 236.716 628.345 244.239C631.794 249.145 635.469 253.997 637.859 259.543C640.288 265.18 640.421 270.535 638.049 273.504Z"
    fill="#EFC8B1" />
  <path
    d="M630.519 260.831H630.248C627.065 260.846 623.965 261.965 621.218 263.606C624.137 267.429 627.414 270.95 631.63 273.399C631.909 273.561 632.177 273.701 632.438 273.833C632.98 273.206 633.489 272.552 633.939 271.852C636.865 267.325 637.28 260.935 630.519 260.831Z"
    fill="#E8B79E" />
  <path
    d="M633.54 262.253C633.451 262.266 633.36 262.279 633.27 262.292C629.729 262.827 626.493 264.728 623.824 267.127C618.148 272.228 613.479 278.93 608.397 284.647C604.44 289.098 600.479 294.03 596.105 298.35C596.378 298.641 596.611 298.969 596.784 299.35C598.493 303.132 599.131 305.481 601.485 308.902C605.746 301.248 623.58 290.165 633.498 279.587C635.457 277.496 637.333 275.269 638.523 272.662C640.76 267.759 640.245 261.375 633.54 262.253Z"
    fill="#EFC8B1" />
  <path
    d="M595.854 304.529C595.847 304.54 591.028 310.106 590.099 310.013C589.17 309.92 587.945 308.727 587.945 308.727L594.266 300.499C594.266 300.499 587.599 306.814 585.979 306.919C584.358 307.027 583.148 305.7 583.148 305.7L591.686 296.755C591.686 296.755 586.058 303.439 584.119 304.05C582.179 304.664 580.69 303.441 580.69 303.441L588.936 293.395L588.643 294.976C588.643 294.976 584.58 298.059 582.999 297.768C581.419 297.476 580.169 296.547 580.169 296.547C580.169 296.547 584.498 293.49 586.73 291.296C588.96 289.104 591.205 289.461 591.205 289.461C595.198 292.765 597.678 297.804 600.227 302.29C602.197 305.757 602.249 312.4 602.249 312.4C602.249 312.4 601.01 314.642 595.854 304.529Z"
    fill="#F8D0B7" />
  <path
    d="M535.329 135.382C535.329 135.382 528.243 149.017 528.64 168.709C528.64 168.709 515.38 151.36 532.685 126.573L535.329 135.382Z"
    fill="#161616" />
  <path
    d="M604.88 249.474C604.88 249.474 620.656 247.226 623.85 235.414C623.85 235.414 601.01 209.191 591.153 205.946C581.297 202.703 576.984 214.044 581.672 222.012C586.358 229.979 604.88 249.474 604.88 249.474Z"
    fill="white" />
  <path
    d="M530.771 227.177C530.771 227.177 531.454 223.752 534.194 219.956C536.936 216.16 531.437 218.503 526.117 220.966C526.117 220.966 530.807 223.58 530.8 225.269C530.796 226.218 530.771 227.177 530.771 227.177Z"
    fill="#E1E4E5" />
  <path
    d="M555.38 176.894C555.943 176.894 556.428 176.511 556.57 175.966C557.131 173.793 559.088 172.186 561.438 172.186C563.787 172.186 565.745 173.793 566.306 175.966C566.447 176.511 566.933 176.894 567.496 176.894C568.285 176.894 568.908 176.156 568.715 175.389C567.893 172.126 564.958 169.706 561.438 169.706C557.918 169.706 554.983 172.126 554.161 175.389C553.968 176.156 554.589 176.894 555.38 176.894Z"
    fill="#F05B4E" />
</svg>